<svg width="128" height="128" viewBox="0 0 128 128" fill="none" xmlns="http://www.w3.org/2000/svg">
<path d="M64 4V16M64 112V124M4 64H16M112 64H124M28 100L30.058 97.942M97.942 30.058L100 28M100 100L97.942 97.942M30.058 30.058L28 28M83.59 79.762C84.352 87.61 84.73 91.534 82.432 93.28C80.134 95.02 76.684 93.436 69.772 90.256L67.984 89.428C66.022 88.528 65.044 88.072 64 88.072C62.962 88.072 61.978 88.528 60.016 89.428L58.228 90.256C51.316 93.436 47.866 95.026 45.568 93.28C43.27 91.54 43.648 87.61 44.41 79.762L44.602 77.734C44.824 75.502 44.932 74.386 44.602 73.354C44.284 72.322 43.57 71.482 42.142 69.814L40.84 68.29C35.812 62.41 33.292 59.47 34.174 56.644C34.81 54.604 36.922 53.596 40.84 52.564M55.462 44.224C59.26 37.408 61.162 34 64 34C66.838 34 68.74 37.408 72.538 44.224L73.522 45.988C74.602 47.926 75.142 48.892 75.982 49.528C76.822 50.17 77.878 50.41 79.972 50.884L81.88 51.316C89.26 52.984 92.95 53.818 93.826 56.644C94.462 58.684 93.328 60.784 90.754 64" stroke="url(#paint0_linear_5433_6150)" stroke-width="6.57534" stroke-linecap="round"/>
<defs>
<linearGradient id="paint0_linear_5433_6150" x1="4" y1="64" x2="124" y2="64" gradientUnits="userSpaceOnUse">
<stop stop-color="#00FFAA"/>
<stop offset="0.485" stop-color="#7CF6FF"/>
<stop offset="1" stop-color="#FF9AD7"/>
</linearGradient>
</defs>
</svg>
