<svg width="248" height="311" viewBox="0 0 248 311" fill="none" xmlns="http://www.w3.org/2000/svg">
<g filter="url(#filter0_d_1_1069)">
<mask id="mask0_1_1069" style="mask-type:alpha" maskUnits="userSpaceOnUse" x="63" y="63" width="123" height="185">
<path d="M162.68 105.519H108.053V138.183H147.193C160.428 138.183 170.283 146.067 170.283 159.301C170.283 172.254 160.428 180.139 147.193 180.139H108.053V224.629C108.053 237.863 98.761 248 85.5266 248C72.2922 248 63 237.863 63 224.629V86.3714C63 73.137 72.2922 63 85.5266 63H162.68C175.915 63 185.207 72.0107 185.207 84.4003C185.207 97.0715 175.915 105.519 162.68 105.519Z" fill="white"/>
</mask>
<g mask="url(#mask0_1_1069)">
<ellipse cx="116.272" cy="147.348" rx="110.984" ry="110.984" fill="url(#paint0_linear_1_1069)"/>
<circle cx="85.4481" cy="225.907" r="22.4481" fill="#F70000"/>
<rect x="138.206" y="63" width="47.7854" height="42.7318" rx="21.3659" fill="#F60000"/>
<ellipse cx="158.644" cy="84.2785" rx="21.2785" ry="21.2785" fill="#471414"/>
</g>
</g>
<defs>
<filter id="filter0_d_1_1069" x="0.360001" y="0.360001" width="247.487" height="310.28" filterUnits="userSpaceOnUse" color-interpolation-filters="sRGB">
<feFlood flood-opacity="0" result="BackgroundImageFix"/>
<feColorMatrix in="SourceAlpha" type="matrix" values="0 0 0 0 0 0 0 0 0 0 0 0 0 0 0 0 0 0 127 0" result="hardAlpha"/>
<feOffset/>
<feGaussianBlur stdDeviation="31.32"/>
<feComposite in2="hardAlpha" operator="out"/>
<feColorMatrix type="matrix" values="0 0 0 0 0 0 0 0 0 0 0 0 0 0 0 0 0 0 0.5 0"/>
<feBlend mode="normal" in2="BackgroundImageFix" result="effect1_dropShadow_1_1069"/>
<feBlend mode="normal" in="SourceGraphic" in2="effect1_dropShadow_1_1069" result="shape"/>
</filter>
<linearGradient id="paint0_linear_1_1069" x1="85.4623" y1="248.208" x2="133.802" y2="92.0577" gradientUnits="userSpaceOnUse">
<stop stop-color="#AC0707"/>
<stop offset="1" stop-color="#471414"/>
</linearGradient>
</defs>
</svg>
