<svg width="1920" height="1080" viewBox="0 0 1920 1080" fill="none" xmlns="http://www.w3.org/2000/svg">
<g clip-path="url(#clip0_34_372)">
<rect width="1920" height="1080" fill="black" fill-opacity="0.25"/>
<path opacity="0.8" d="M-482.491 189.783C-481.89 185.88 -478.532 183 -474.584 183H613.635C618.552 183 622.305 187.393 621.537 192.25L606.04 290.25C605.425 294.137 602.074 297 598.138 297H-489.674C-494.577 297 -498.327 292.629 -497.581 287.783L-482.491 189.783Z" fill="#2E3835"/>
<path d="M-528.868 263.779C-528.265 259.878 -524.908 257 -520.961 257H601.631C606.549 257 610.302 261.396 609.532 266.254L605.724 290.254C605.107 294.139 601.757 297 597.823 297H-524.669C-529.574 297 -533.324 292.626 -532.575 287.779L-528.868 263.779Z" fill="#222A27"/>
<g filter="url(#filter0_d_34_372)">
<rect x="-19" y="1029" width="1959" height="51" fill="#222A27"/>
</g>
<path opacity="0.75" d="M-45 314C-45 308.477 -40.5228 304 -35 304H833.195C839.375 304 844.075 309.549 843.059 315.644L816.387 475.644C815.583 480.466 811.411 484 806.523 484H-35C-40.5229 484 -45 479.523 -45 474V314Z" fill="#171C1A"/>
<path d="M129.176 577H350.636C354.938 577 358.222 580.844 357.551 585.093L347.435 649.093C346.897 652.495 343.964 655 340.52 655H119.325C115.035 655 111.755 651.176 112.407 646.936L122.257 582.936C122.782 579.521 125.721 577 129.176 577Z" fill="black" fill-opacity="0.75"/>
<path d="M129.176 577H350.636C354.938 577 358.222 580.844 357.551 585.093L347.435 649.093C346.897 652.495 343.964 655 340.52 655H119.325C115.035 655 111.755 651.176 112.407 646.936L122.257 582.936C122.782 579.521 125.721 577 129.176 577Z" fill="url(#paint0_linear_34_372)" fill-opacity="0.25"/>
<path d="M129.176 577H350.636C354.938 577 358.222 580.844 357.551 585.093L347.435 649.093C346.897 652.495 343.964 655 340.52 655H119.325C115.035 655 111.755 651.176 112.407 646.936L122.257 582.936C122.782 579.521 125.721 577 129.176 577Z" stroke="url(#paint1_linear_34_372)" stroke-width="2"/>
<path d="M370.176 577H521.636C525.938 577 529.222 580.844 528.551 585.093L518.435 649.093C517.897 652.495 514.964 655 511.52 655H360.325C356.035 655 352.755 651.176 353.407 646.936L363.257 582.936C363.782 579.521 366.721 577 370.176 577Z" fill="black" fill-opacity="0.75"/>
<path d="M370.176 577H521.636C525.938 577 529.222 580.844 528.551 585.093L518.435 649.093C517.897 652.495 514.964 655 511.52 655H360.325C356.035 655 352.755 651.176 353.407 646.936L363.257 582.936C363.782 579.521 366.721 577 370.176 577Z" fill="#FF0000" fill-opacity="0.25"/>
<path d="M370.176 577H521.636C525.938 577 529.222 580.844 528.551 585.093L518.435 649.093C517.897 652.495 514.964 655 511.52 655H360.325C356.035 655 352.755 651.176 353.407 646.936L363.257 582.936C363.782 579.521 366.721 577 370.176 577Z" stroke="#FF0000" stroke-width="2"/>
<path d="M140.704 597.384C141.584 598.008 142.032 598.904 142.032 600.008C142.032 601.912 140.4 603.128 138.096 603.128C136.672 603.128 135.488 602.68 134.848 601.864C134.368 601.272 134.368 600.792 134.912 600.264C135.392 599.784 135.936 599.8 136.48 600.248C136.96 600.664 137.36 600.856 138.16 600.856C139.072 600.856 139.52 600.472 139.52 599.768C139.52 599.08 139.072 598.696 138.272 598.696H137.952C137.376 598.696 136.96 598.312 136.96 597.64C136.96 596.968 137.36 596.584 137.952 596.584H138.048C138.72 596.584 139.152 596.232 139.152 595.608C139.152 595.112 138.768 594.648 138.08 594.648C137.472 594.648 137.104 595.016 136.832 595.4C136.4 595.992 135.904 596.024 135.344 595.656C134.72 595.256 134.56 594.744 134.976 594.024C135.488 593.08 136.64 592.36 138.144 592.36C140.256 592.36 141.664 593.816 141.664 595.32C141.664 596.04 141.36 596.776 140.704 597.384ZM147.858 592.36C150.658 592.36 152.562 594.376 152.562 597.736C152.562 601.08 150.658 603.128 147.858 603.128C145.058 603.128 143.154 601.08 143.154 597.736C143.154 594.376 145.058 592.36 147.858 592.36ZM147.858 594.68C146.466 594.68 145.73 595.624 145.73 597.736C145.73 599.832 146.466 600.824 147.858 600.808C149.234 600.808 149.986 599.832 149.986 597.736C149.986 595.624 149.234 594.68 147.858 594.68ZM158.233 592.36C161.033 592.36 162.937 594.376 162.937 597.736C162.937 601.08 161.033 603.128 158.233 603.128C155.433 603.128 153.529 601.08 153.529 597.736C153.529 594.376 155.433 592.36 158.233 592.36ZM158.233 594.68C156.841 594.68 156.105 595.624 156.105 597.736C156.105 599.832 156.841 600.824 158.233 600.808C159.609 600.808 160.361 599.832 160.361 597.736C160.361 595.624 159.609 594.68 158.233 594.68Z" fill="white"/>
<path d="M384.456 601.448C384.552 602.232 384.216 602.84 383.496 602.968C382.728 603.112 382.072 602.648 381.976 601.848L381.496 597.336L380.168 600.472C379.976 601 379.544 601.304 379 601.304C378.424 601.304 378.008 601 377.816 600.472L376.504 597.336L376.04 601.848C375.944 602.648 375.272 603.112 374.504 602.968C373.784 602.856 373.464 602.232 373.56 601.448L374.456 593.672C374.568 592.856 375.096 592.472 375.72 592.472C376.248 592.472 376.616 592.744 376.888 593.288L379 597.592L381.096 593.288C381.368 592.744 381.736 592.472 382.264 592.472C382.92 592.472 383.448 592.872 383.56 593.656L384.456 601.448ZM387.112 592.488C387.864 592.488 388.392 593.064 388.392 593.816V601.672C388.392 602.424 387.864 603 387.112 603C386.36 603 385.832 602.424 385.832 601.672V593.816C385.832 593.064 386.36 592.488 387.112 592.488ZM392.514 595.352C392.514 595.864 393.058 596.104 394.242 596.424C396.21 596.936 397.906 597.768 397.906 599.816C397.906 601.8 396.258 603.128 393.906 603.128C392.05 603.128 390.642 602.328 390.114 601.816C389.49 601.208 389.618 600.504 390.018 600.04C390.498 599.512 391.09 599.48 391.874 599.96C392.21 600.2 393.01 600.84 394.098 600.84C394.978 600.84 395.346 600.392 395.346 599.976C395.346 599.464 394.69 599.208 393.074 598.744C391.058 598.216 390.002 597.352 390.002 595.624C390.002 593.528 391.746 592.36 393.794 592.36C395.106 592.36 396.29 592.872 396.834 593.336C397.586 593.912 397.602 594.584 397.138 595.144C396.69 595.688 396.082 595.8 395.33 595.32C395.074 595.144 394.482 594.6 393.618 594.6C392.962 594.6 392.514 594.936 392.514 595.352ZM401.686 595.352C401.686 595.864 402.23 596.104 403.414 596.424C405.382 596.936 407.078 597.768 407.078 599.816C407.078 601.8 405.43 603.128 403.078 603.128C401.222 603.128 399.814 602.328 399.286 601.816C398.662 601.208 398.79 600.504 399.19 600.04C399.67 599.512 400.262 599.48 401.046 599.96C401.382 600.2 402.182 600.84 403.27 600.84C404.15 600.84 404.518 600.392 404.518 599.976C404.518 599.464 403.862 599.208 402.246 598.744C400.23 598.216 399.174 597.352 399.174 595.624C399.174 593.528 400.918 592.36 402.966 592.36C404.278 592.36 405.462 592.872 406.006 593.336C406.758 593.912 406.774 594.584 406.31 595.144C405.862 595.688 405.254 595.8 404.502 595.32C404.246 595.144 403.654 594.6 402.79 594.6C402.134 594.6 401.686 594.936 401.686 595.352Z" fill="white"/>
<path d="M136.269 497.783C136.869 493.881 140.227 491 144.175 491H365.636C370.553 491 374.306 495.393 373.538 500.249L363.422 564.249C362.807 568.137 359.456 571 355.52 571H134.325C129.422 571 125.673 566.629 126.419 561.783L136.269 497.783Z" fill="#222A27"/>
<path d="M377.269 497.783C377.869 493.881 381.227 491 385.175 491H606.636C611.553 491 615.306 495.393 614.538 500.249L604.422 564.249C603.807 568.137 600.456 571 596.52 571H375.325C370.422 571 366.673 566.629 367.419 561.783L377.269 497.783Z" fill="#222A27"/>
<path d="M618.269 497.783C618.869 493.881 622.227 491 626.175 491H847.636C852.553 491 856.306 495.393 855.538 500.249L845.422 564.249C844.807 568.137 841.456 571 837.52 571H616.325C611.422 571 607.673 566.629 608.419 561.783L618.269 497.783Z" fill="#222A27"/>
<path d="M158.824 516.208C159.128 516.912 158.808 517.616 158.12 517.904C157.432 518.192 156.712 517.856 156.44 517.136L156.088 516.24H152.152L151.816 517.136C151.544 517.856 150.824 518.192 150.136 517.904C149.432 517.616 149.128 516.912 149.432 516.208L152.872 508.272C153.144 507.664 153.592 507.36 154.12 507.36C154.664 507.36 155.112 507.664 155.384 508.272L158.824 516.208ZM152.952 514.176H155.304L154.12 511.104L152.952 514.176ZM166.558 510.56C166.19 510.224 165.694 509.792 164.686 509.792C162.91 509.792 161.918 511.104 161.918 512.704C161.918 514.304 162.926 515.696 164.702 515.696C165.71 515.696 166.238 515.248 166.638 514.88C167.246 514.304 167.886 514.192 168.494 514.784C169.054 515.328 169.054 516 168.51 516.656C167.758 517.504 166.27 518.128 164.558 518.128C161.486 518.128 159.326 515.696 159.326 512.736C159.326 509.728 161.47 507.36 164.606 507.36C166.238 507.36 167.694 507.968 168.382 508.784C168.942 509.424 168.878 510.016 168.302 510.576C167.71 511.168 167.166 511.12 166.558 510.56ZM176.933 510.56C176.565 510.224 176.069 509.792 175.061 509.792C173.285 509.792 172.293 511.104 172.293 512.704C172.293 514.304 173.301 515.696 175.077 515.696C176.085 515.696 176.613 515.248 177.013 514.88C177.621 514.304 178.261 514.192 178.869 514.784C179.429 515.328 179.429 516 178.885 516.656C178.133 517.504 176.645 518.128 174.933 518.128C171.861 518.128 169.701 515.696 169.701 512.736C169.701 509.728 171.845 507.36 174.981 507.36C176.613 507.36 178.069 507.968 178.757 508.784C179.317 509.424 179.253 510.016 178.677 510.576C178.085 511.168 177.541 511.12 176.933 510.56ZM188.402 507.488C189.154 507.488 189.682 508.064 189.682 508.816V513.68C189.682 516.64 187.746 518.112 185.154 518.128C182.594 518.144 180.642 516.656 180.642 513.68V508.816C180.642 508.064 181.154 507.488 181.922 507.488C182.674 507.488 183.202 508.064 183.202 508.816V513.52C183.202 515.168 183.986 515.776 185.154 515.776C186.322 515.776 187.122 515.168 187.122 513.52V508.816C187.122 508.064 187.65 507.488 188.402 507.488ZM199.302 515.984C199.702 516.592 199.574 517.344 198.998 517.76C198.406 518.176 197.638 518.048 197.206 517.424L196.15 515.888C195.83 515.408 195.382 514.656 194.694 514.656H193.75V516.672C193.75 517.424 193.222 518 192.47 518C191.718 518 191.19 517.424 191.19 516.672V508.816C191.19 508.064 191.718 507.488 192.47 507.488H195.606C198.15 507.488 199.382 509.12 199.382 510.912C199.382 512.08 198.886 513.28 197.75 513.936C198.006 514.16 198.214 514.384 198.39 514.656L199.302 515.984ZM195.238 512.592C196.486 512.592 196.854 511.936 196.854 511.2C196.854 510.464 196.47 509.824 195.318 509.824H193.75V512.592H195.238ZM209.949 516.208C210.253 516.912 209.933 517.616 209.245 517.904C208.557 518.192 207.837 517.856 207.565 517.136L207.213 516.24H203.277L202.941 517.136C202.669 517.856 201.949 518.192 201.261 517.904C200.557 517.616 200.253 516.912 200.557 516.208L203.997 508.272C204.269 507.664 204.717 507.36 205.245 507.36C205.789 507.36 206.237 507.664 206.509 508.272L209.949 516.208ZM204.077 514.176H206.429L205.245 511.104L204.077 514.176ZM217.683 510.56C217.315 510.224 216.819 509.792 215.811 509.792C214.035 509.792 213.043 511.104 213.043 512.704C213.043 514.304 214.051 515.696 215.827 515.696C216.835 515.696 217.363 515.248 217.763 514.88C218.371 514.304 219.011 514.192 219.619 514.784C220.179 515.328 220.179 516 219.635 516.656C218.883 517.504 217.395 518.128 215.683 518.128C212.611 518.128 210.451 515.696 210.451 512.736C210.451 509.728 212.595 507.36 215.731 507.36C217.363 507.36 218.819 507.968 219.507 508.784C220.067 509.424 220.003 510.016 219.427 510.576C218.835 511.168 218.291 511.12 217.683 510.56ZM228.368 507.488C229.12 507.488 229.648 508.064 229.648 508.816V509.856C229.648 512 228.56 513.6 226.704 514.112V516.672C226.704 517.424 226.176 518 225.424 518C224.672 518 224.144 517.424 224.144 516.672V514.112C222.288 513.6 221.2 512 221.2 509.856V508.816C221.2 508.064 221.712 507.488 222.48 507.488C223.232 507.488 223.76 508.064 223.76 508.816V509.904C223.76 511.168 224.288 511.936 225.424 511.936C226.56 511.936 227.088 511.168 227.088 509.904V508.816C227.088 508.064 227.616 507.488 228.368 507.488Z" fill="white"/>
<path d="M396.792 510.56C396.424 510.224 395.928 509.792 394.92 509.792C393.144 509.792 392.152 511.104 392.152 512.704C392.152 514.304 393.16 515.696 394.936 515.696C395.944 515.696 396.472 515.248 396.872 514.88C397.48 514.304 398.12 514.192 398.728 514.784C399.288 515.328 399.288 516 398.744 516.656C397.992 517.504 396.504 518.128 394.792 518.128C391.72 518.128 389.56 515.696 389.56 512.736C389.56 509.728 391.704 507.36 394.84 507.36C396.472 507.36 397.928 507.968 398.616 508.784C399.176 509.424 399.112 510.016 398.536 510.576C397.944 511.168 397.4 511.12 396.792 510.56ZM405.359 518.128C402.207 518.128 399.935 515.904 399.935 512.768C399.935 509.616 402.207 507.36 405.359 507.36C408.511 507.36 410.783 509.616 410.783 512.768C410.783 515.904 408.527 518.128 405.359 518.128ZM405.359 515.696C407.071 515.696 408.191 514.464 408.191 512.768C408.191 511.056 407.071 509.792 405.359 509.792C403.663 509.792 402.527 511.056 402.527 512.768C402.527 514.464 403.663 515.696 405.359 515.696ZM422.815 516.448C422.911 517.232 422.575 517.84 421.855 517.968C421.087 518.112 420.431 517.648 420.335 516.848L419.855 512.336L418.527 515.472C418.335 516 417.903 516.304 417.359 516.304C416.783 516.304 416.367 516 416.175 515.472L414.863 512.336L414.399 516.848C414.303 517.648 413.631 518.112 412.863 517.968C412.143 517.856 411.823 517.232 411.919 516.448L412.815 508.672C412.927 507.856 413.455 507.472 414.079 507.472C414.607 507.472 414.975 507.744 415.247 508.288L417.359 512.592L419.455 508.288C419.727 507.744 420.095 507.472 420.623 507.472C421.279 507.472 421.807 507.872 421.919 508.656L422.815 516.448ZM430.847 512.384C431.535 512.832 432.239 513.648 432.239 514.896C432.239 516.544 431.135 518 429.023 518H425.407C424.655 518 424.127 517.424 424.127 516.672V508.816C424.127 508.064 424.655 507.488 425.407 507.488H428.159C430.271 507.488 431.599 508.56 431.599 510.544C431.599 511.36 431.151 512.064 430.847 512.384ZM427.951 509.776H426.687V511.648H428.223C428.751 511.648 429.071 511.328 429.071 510.688C429.071 510.096 428.735 509.776 427.951 509.776ZM428.543 515.712C429.327 515.712 429.663 515.344 429.663 514.672C429.663 514 429.327 513.68 428.767 513.68H426.687V515.712H428.543ZM438.578 518.128C435.426 518.128 433.154 515.904 433.154 512.768C433.154 509.616 435.426 507.36 438.578 507.36C441.73 507.36 444.002 509.616 444.002 512.768C444.002 515.904 441.746 518.128 438.578 518.128ZM438.578 515.696C440.29 515.696 441.41 514.464 441.41 512.768C441.41 511.056 440.29 509.792 438.578 509.792C436.882 509.792 435.746 511.056 435.746 512.768C435.746 514.464 436.882 515.696 438.578 515.696Z" fill="white"/>
<path d="M632.912 507.488C635.552 507.488 636.832 509.424 636.832 511.296C636.832 513.392 635.312 515.152 632.992 515.152H631.328V516.672C631.328 517.424 630.8 518 630.048 518C629.296 518 628.768 517.424 628.768 516.672V508.816C628.768 508.064 629.296 507.488 630.048 507.488H632.912ZM632.624 512.768C633.904 512.768 634.272 512.112 634.272 511.296C634.272 510.48 633.888 509.856 632.704 509.856H631.328V512.768H632.624ZM642.146 507.488C644.786 507.488 646.066 509.424 646.066 511.296C646.066 513.392 644.546 515.152 642.226 515.152H640.562V516.672C640.562 517.424 640.034 518 639.282 518C638.53 518 638.002 517.424 638.002 516.672V508.816C638.002 508.064 638.53 507.488 639.282 507.488H642.146ZM641.858 512.768C643.138 512.768 643.506 512.112 643.506 511.296C643.506 510.48 643.122 509.856 641.938 509.856H640.562V512.768H641.858Z" fill="white"/>
<path d="M66.1123 1001H273.638C279.14 1001 283.355 1005.89 282.539 1011.33L275.039 1061.33C274.378 1065.74 270.593 1069 266.138 1069H58.6123C53.11 1069 48.8957 1064.11 49.7119 1058.67L57.2119 1008.67C57.8728 1004.26 61.6573 1001 66.1123 1001Z" fill="#DE31AE" stroke="url(#paint2_linear_34_372)" stroke-width="2"/>
<path d="M100.333 1036L89.6666 1036M89.6666 1036L94.3333 1040.67M89.6666 1036L94.3333 1031.33M94.9999 1022.67C87.6359 1022.67 81.6666 1028.64 81.6666 1036C81.6666 1043.36 87.6359 1049.33 94.9999 1049.33C102.364 1049.33 108.333 1043.36 108.333 1036C108.333 1028.64 102.364 1022.67 94.9999 1022.67Z" stroke="white" stroke-width="2" stroke-linecap="round" stroke-linejoin="round"/>
<path d="M161.061 1035.02C161.941 1035.66 162.641 1036.76 162.641 1038.14C162.641 1040.32 161.281 1042.02 158.801 1042.02H157.401C156.701 1042.02 156.221 1041.58 156.221 1040.9C156.221 1040.24 156.701 1039.78 157.401 1039.78H158.521C159.701 1039.78 160.301 1039.12 160.301 1038.08C160.301 1037.06 159.821 1036.4 158.861 1036.4H157.541C156.841 1036.4 156.401 1035.96 156.401 1035.34C156.401 1034.72 156.841 1034.28 157.541 1034.28H158.181C159.141 1034.28 159.561 1033.68 159.561 1032.74C159.561 1031.78 158.981 1031.2 157.801 1031.2H155.121V1040.76C155.121 1041.48 154.641 1042.02 153.921 1042.02C153.181 1042.02 152.721 1041.48 152.721 1040.76V1030.22C152.721 1029.5 153.181 1028.96 153.941 1028.96H158.001C160.481 1028.96 161.901 1030.5 161.901 1032.68C161.901 1033.62 161.521 1034.44 161.061 1035.02ZM169.528 1039.96C170.208 1039.98 170.648 1040.34 170.648 1041.06C170.628 1041.76 170.208 1042.16 169.488 1042.16C166.468 1042.16 164.368 1039.96 164.368 1036.98C164.368 1033.92 166.548 1031.84 169.688 1031.84C172.628 1031.84 174.608 1033.58 174.608 1036.5V1040.78C174.608 1041.5 174.128 1042.02 173.428 1042.02C172.708 1042.02 172.248 1041.5 172.248 1040.78V1036.86C172.248 1035.12 171.468 1034.06 169.708 1034.06C167.808 1034.06 166.728 1035.34 166.728 1036.96C166.728 1038.64 167.848 1039.92 169.528 1039.96ZM183.737 1034.94C183.197 1034.4 182.557 1034.04 181.697 1034.04C179.997 1034.04 178.837 1035.4 178.837 1037.02C178.837 1038.64 179.997 1039.98 181.697 1039.98C182.577 1039.98 183.217 1039.62 183.757 1039.08C184.257 1038.58 184.837 1038.58 185.357 1039.08C185.837 1039.58 185.917 1040.2 185.377 1040.72C184.457 1041.64 183.217 1042.18 181.697 1042.18C178.657 1042.18 176.477 1039.98 176.477 1037.02C176.477 1034.04 178.657 1031.86 181.697 1031.86C183.237 1031.86 184.477 1032.4 185.377 1033.3C185.877 1033.8 185.757 1034.4 185.257 1034.9C184.717 1035.4 184.197 1035.42 183.737 1034.94ZM188.799 1027.96C189.519 1027.96 189.979 1028.48 189.979 1029.2V1040.78C189.979 1041.5 189.519 1042.02 188.799 1042.02C188.079 1042.02 187.619 1041.5 187.619 1040.78V1029.2C187.619 1028.48 188.079 1027.96 188.799 1027.96ZM196.339 1040.46C196.579 1041.16 196.279 1041.78 195.519 1041.98C194.879 1042.14 194.319 1041.74 194.079 1041.08L193.219 1039.02C192.919 1038.28 192.599 1037.78 191.599 1037.78C190.919 1037.78 190.459 1037.38 190.459 1036.68C190.459 1035.96 190.919 1035.56 191.599 1035.56C192.299 1035.56 192.579 1035.12 192.919 1034.42L193.659 1032.92C193.939 1032.24 194.419 1031.86 195.119 1032.06C195.779 1032.24 196.179 1032.84 195.919 1033.56L195.279 1034.94C195.039 1035.48 194.599 1036.18 193.859 1036.5C194.639 1036.76 195.099 1037.32 195.399 1038.12L196.339 1040.46Z" fill="white"/>
<g filter="url(#filter1_d_34_372)">
<path d="M355.103 1008.54C355.838 1003.64 360.043 1000.02 364.993 1000.02H482.769C488.882 1000.02 493.565 1005.46 492.658 1011.5L482.38 1080.02H344.381L355.103 1008.54Z" fill="#394642"/>
<path d="M355.103 1008.54C355.838 1003.64 360.043 1000.02 364.993 1000.02H482.769C488.882 1000.02 493.565 1005.46 492.658 1011.5L482.38 1080.02H344.381L355.103 1008.54Z" fill="url(#paint3_linear_34_372)"/>
</g>
<path d="M380.02 1047.51C380.564 1047.7 380.788 1048.25 380.612 1048.78L377.764 1057.26C377.636 1057.7 377.236 1057.98 376.788 1057.98C376.308 1057.98 375.956 1057.74 375.796 1057.24L374.052 1052.09L373.284 1054.34C373.108 1054.84 372.804 1055.05 372.26 1054.89C371.668 1054.73 371.62 1054.28 371.78 1053.77L373.092 1049.3C373.204 1048.89 373.604 1048.62 374.052 1048.62C374.484 1048.62 374.884 1048.89 374.996 1049.3L376.708 1055.1L378.804 1048.18C378.948 1047.62 379.46 1047.32 380.02 1047.51ZM371.604 1057.9C371.012 1058.12 370.5 1057.82 370.308 1057.26L367.508 1048.81C367.316 1048.28 367.508 1047.75 368.036 1047.54C368.58 1047.32 369.092 1047.59 369.3 1048.12L372.036 1056.6C372.228 1057.18 372.164 1057.7 371.604 1057.9ZM385.169 1056.26C385.713 1056.28 386.065 1056.57 386.065 1057.14C386.049 1057.7 385.713 1058.02 385.137 1058.02C382.721 1058.02 381.041 1056.26 381.041 1053.88C381.041 1051.43 382.785 1049.77 385.297 1049.77C387.649 1049.77 389.233 1051.16 389.233 1053.5V1056.92C389.233 1057.5 388.849 1057.91 388.289 1057.91C387.713 1057.91 387.345 1057.5 387.345 1056.92V1053.78C387.345 1052.39 386.721 1051.54 385.313 1051.54C383.793 1051.54 382.929 1052.57 382.929 1053.86C382.929 1055.21 383.825 1056.23 385.169 1056.26ZM394.888 1056.15C395.448 1056.15 395.816 1056.46 395.816 1057.03C395.816 1057.61 395.448 1057.91 394.888 1057.91H394.136C392.136 1057.91 391.032 1056.92 391.032 1054.65V1048.42C391.032 1047.85 391.4 1047.43 391.976 1047.43C392.552 1047.43 392.92 1047.85 392.92 1048.42V1054.36C392.92 1055.58 393.272 1056.15 394.168 1056.15H394.888ZM394.536 1051.7C393.992 1051.7 393.576 1051.38 393.576 1050.81C393.576 1050.22 393.992 1049.9 394.536 1049.9H394.856C395.4 1049.9 395.8 1050.22 395.8 1050.81C395.8 1051.38 395.4 1051.7 394.856 1051.7H394.536ZM402.599 1052.25C402.167 1051.82 401.655 1051.53 400.967 1051.53C399.607 1051.53 398.679 1052.62 398.679 1053.91C398.679 1055.21 399.607 1056.28 400.967 1056.28C401.671 1056.28 402.183 1055.99 402.615 1055.56C403.015 1055.16 403.479 1055.16 403.895 1055.56C404.279 1055.96 404.343 1056.46 403.911 1056.87C403.175 1057.61 402.183 1058.04 400.967 1058.04C398.535 1058.04 396.791 1056.28 396.791 1053.91C396.791 1051.53 398.535 1049.78 400.967 1049.78C402.199 1049.78 403.191 1050.22 403.911 1050.94C404.311 1051.34 404.215 1051.82 403.815 1052.22C403.383 1052.62 402.967 1052.63 402.599 1052.25ZM409.944 1049.78C411.576 1049.78 413.096 1050.66 413.096 1053.05V1056.92C413.096 1057.5 412.728 1057.91 412.152 1057.91C411.576 1057.91 411.208 1057.5 411.208 1056.92V1053.26C411.208 1051.77 410.44 1051.53 409.528 1051.53C408.008 1051.53 407.592 1052.42 407.592 1052.89V1056.92C407.592 1057.5 407.224 1057.91 406.648 1057.91C406.072 1057.91 405.704 1057.5 405.704 1056.92V1047.66C405.704 1047.08 406.072 1046.66 406.648 1046.66C407.224 1046.66 407.592 1047.08 407.592 1047.66V1050.81H407.688C408.072 1050.26 408.84 1049.78 409.944 1049.78ZM427.252 1057.77C426.804 1058.07 426.244 1057.98 425.924 1057.5C425.604 1057.06 425.012 1056.12 424.692 1055.67C424.388 1055.19 423.86 1054.38 422.98 1054.38C422.436 1054.38 422.1 1054.02 422.1 1053.53C422.1 1053.03 422.436 1052.68 422.98 1052.68H423.412C425.028 1052.68 425.412 1051.69 425.412 1050.89C425.412 1050.1 425.028 1049.26 423.492 1049.26H421.284V1056.9C421.284 1057.48 420.9 1057.91 420.324 1057.91C419.732 1057.91 419.364 1057.48 419.364 1056.9V1048.47C419.364 1047.9 419.732 1047.46 420.324 1047.46H423.748C426.244 1047.46 427.3 1049.08 427.3 1050.82C427.3 1052.06 426.628 1053.22 425.556 1053.85C425.844 1054.1 426.1 1054.38 426.324 1054.71C426.612 1055.1 427.188 1056.01 427.476 1056.42C427.78 1056.9 427.7 1057.46 427.252 1057.77ZM434.726 1055.9C435.286 1055.62 435.702 1055.69 435.99 1056.2C436.278 1056.7 436.166 1057.08 435.654 1057.43C435.11 1057.78 434.246 1058.04 433.19 1058.04C430.438 1058.04 428.806 1056.25 428.806 1053.93C428.806 1051.48 430.63 1049.78 432.998 1049.78C435.222 1049.78 436.758 1051.19 436.758 1053.32C436.758 1054.1 436.262 1054.68 435.462 1054.68H432.934C432.406 1054.68 432.054 1054.41 432.054 1053.88C432.054 1053.35 432.406 1053.08 432.934 1053.08H434.95C434.95 1052.31 434.182 1051.45 432.966 1051.45C431.622 1051.45 430.678 1052.5 430.678 1053.9C430.678 1055.24 431.542 1056.34 433.11 1056.34C433.83 1056.34 434.31 1056.12 434.726 1055.9ZM442.221 1056.17C443.581 1056.14 444.477 1055.13 444.477 1053.83C444.477 1052.6 443.661 1051.54 442.125 1051.54C440.733 1051.54 440.061 1052.41 440.061 1053.78V1058.7C440.061 1059.27 439.693 1059.69 439.117 1059.69C438.541 1059.69 438.173 1059.27 438.173 1058.7V1053.64C438.173 1051.19 439.757 1049.78 442.141 1049.78C444.621 1049.78 446.365 1051.42 446.365 1053.83C446.365 1056.22 444.637 1057.93 442.253 1057.93C441.677 1057.93 441.325 1057.62 441.325 1057.05C441.309 1056.49 441.661 1056.2 442.221 1056.17ZM448.868 1046.66C449.428 1046.66 449.796 1047.08 449.796 1047.66V1056.92C449.796 1057.5 449.428 1057.91 448.868 1057.91C448.292 1057.91 447.924 1057.5 447.924 1056.92V1047.66C447.924 1047.08 448.292 1046.66 448.868 1046.66ZM455.481 1056.26C456.025 1056.28 456.377 1056.57 456.377 1057.14C456.361 1057.7 456.025 1058.02 455.449 1058.02C453.033 1058.02 451.353 1056.26 451.353 1053.88C451.353 1051.43 453.097 1049.77 455.609 1049.77C457.961 1049.77 459.545 1051.16 459.545 1053.5V1056.92C459.545 1057.5 459.161 1057.91 458.601 1057.91C458.025 1057.91 457.657 1057.5 457.657 1056.92V1053.78C457.657 1052.39 457.033 1051.54 455.625 1051.54C454.105 1051.54 453.241 1052.57 453.241 1053.86C453.241 1055.21 454.137 1056.23 455.481 1056.26ZM467.953 1049.91C468.529 1049.91 468.897 1050.33 468.897 1050.89V1056.71C468.897 1058.71 467.713 1059.83 466.561 1060.23C466.017 1060.41 465.505 1060.23 465.329 1059.7C465.153 1059.18 465.425 1058.82 465.905 1058.58C466.561 1058.25 467.137 1057.62 467.137 1056.55V1056.54H467.041C466.625 1057.13 465.937 1057.69 464.673 1057.69C463.041 1057.69 461.345 1056.74 461.345 1054.15V1050.89C461.345 1050.33 461.713 1049.91 462.289 1049.91C462.865 1049.91 463.233 1050.33 463.233 1050.89V1053.99C463.233 1055.66 464.129 1055.98 465.153 1055.96C466.433 1055.94 467.009 1055.26 467.009 1054.66V1050.89C467.009 1050.33 467.377 1049.91 467.953 1049.91Z" fill="white"/>
<path d="M353.131 1080.02C353.131 1078.36 354.474 1077.02 356.131 1077.02H470.874C472.531 1077.02 473.874 1078.36 473.874 1080.02H353.131Z" fill="#B2FF66"/>
<path d="M411 1023C411 1028.52 415.477 1033 421 1033C426.523 1033 431 1028.52 431 1023C431 1017.48 426.523 1013 421 1013C415.477 1013 411 1017.48 411 1023ZM411 1023V1033M416 1025C416.53 1025 417.039 1024.79 417.414 1024.41C417.789 1024.04 418 1023.53 418 1023C418 1022.47 417.789 1021.96 417.414 1021.59C417.039 1021.21 416.53 1021 416 1021C415.47 1021 414.961 1021.21 414.586 1021.59C414.211 1021.96 414 1022.47 414 1023C414 1023.53 414.211 1024.04 414.586 1024.41C414.961 1024.79 415.47 1025 416 1025ZM426 1025C426.53 1025 427.039 1024.79 427.414 1024.41C427.789 1024.04 428 1023.53 428 1023C428 1022.47 427.789 1021.96 427.414 1021.59C427.039 1021.21 426.53 1021 426 1021C425.47 1021 424.961 1021.21 424.586 1021.59C424.211 1021.96 424 1022.47 424 1023C424 1023.53 424.211 1024.04 424.586 1024.41C424.961 1024.79 425.47 1025 426 1025ZM421 1020C421.53 1020 422.039 1019.79 422.414 1019.41C422.789 1019.04 423 1018.53 423 1018C423 1017.47 422.789 1016.96 422.414 1016.59C422.039 1016.21 421.53 1016 421 1016C420.47 1016 419.961 1016.21 419.586 1016.59C419.211 1016.96 419 1017.47 419 1018C419 1018.53 419.211 1019.04 419.586 1019.41C419.961 1019.79 420.47 1020 421 1020ZM421 1030C421.53 1030 422.039 1029.79 422.414 1029.41C422.789 1029.04 423 1028.53 423 1028C423 1027.47 422.789 1026.96 422.414 1026.59C422.039 1026.21 421.53 1026 421 1026C420.47 1026 419.961 1026.21 419.586 1026.59C419.211 1026.96 419 1027.47 419 1028C419 1028.53 419.211 1029.04 419.586 1029.41C419.961 1029.79 420.47 1030 421 1030Z" stroke="#B2FF66" stroke-width="1.5" stroke-linecap="round" stroke-linejoin="round"/>
<g filter="url(#filter2_d_34_372)">
<path d="M496.722 1008.54C497.457 1003.64 501.662 1000.02 506.612 1000.02H624.388C630.501 1000.02 635.184 1005.46 634.277 1011.5L624 1080.02H486L496.722 1008.54Z" fill="#394642"/>
<path d="M496.722 1008.54C497.457 1003.64 501.662 1000.02 506.612 1000.02H624.388C630.501 1000.02 635.184 1005.46 634.277 1011.5L624 1080.02H486L496.722 1008.54Z" fill="url(#paint4_linear_34_372)"/>
</g>
<path d="M554 1031H566M560 1015V1027M560 1027L563.5 1023.5M560 1027L556.5 1023.5" stroke="#66CCFF" stroke-width="1.5" stroke-linecap="round" stroke-linejoin="round"/>
<path d="M493 1080.02C493 1078.36 494.343 1077.02 496 1077.02H610.743C612.4 1077.02 613.743 1078.36 613.743 1080.02H493Z" fill="#66CCFF"/>
<path d="M527.272 1047.46C530.136 1047.46 532.104 1049.42 532.104 1052.68C532.104 1055.93 530.152 1057.91 527.368 1057.91H527.128C526.552 1057.91 526.168 1057.54 526.168 1057C526.168 1056.47 526.552 1056.1 527.128 1056.1H527.368C529.32 1056.1 530.184 1054.63 530.184 1052.68C530.184 1050.65 529.256 1049.27 527.272 1049.27H525.288V1056.9C525.288 1057.48 524.904 1057.91 524.328 1057.91C523.736 1057.91 523.368 1057.48 523.368 1056.9V1048.47C523.368 1047.9 523.736 1047.46 524.328 1047.46H527.272ZM537.533 1058.04C535.101 1058.04 533.357 1056.28 533.357 1053.91C533.357 1051.53 535.101 1049.78 537.533 1049.78C539.965 1049.78 541.709 1051.53 541.709 1053.91C541.709 1056.28 539.965 1058.04 537.533 1058.04ZM537.533 1056.28C538.941 1056.28 539.821 1055.26 539.821 1053.91C539.821 1052.57 538.941 1051.53 537.533 1051.53C536.125 1051.53 535.245 1052.57 535.245 1053.91C535.245 1055.26 536.125 1056.28 537.533 1056.28ZM537.533 1054.71C537.053 1054.71 536.733 1054.38 536.733 1053.91C536.733 1053.45 537.053 1053.1 537.533 1053.1C538.013 1053.1 538.349 1053.45 538.349 1053.91C538.349 1054.38 538.013 1054.71 537.533 1054.71ZM550.968 1057.98C549.912 1057.98 549.048 1057.4 548.664 1056.81C548.28 1057.4 547.432 1057.98 546.36 1057.98C545 1057.98 543.208 1057.37 543.208 1054.78V1050.89C543.208 1050.33 543.576 1049.91 544.152 1049.91C544.728 1049.91 545.096 1050.33 545.096 1050.89V1054.63C545.096 1056.04 545.896 1056.22 546.408 1056.22C546.92 1056.22 547.72 1056.04 547.72 1054.63V1050.89C547.72 1050.33 548.088 1049.91 548.664 1049.91C549.24 1049.91 549.608 1050.33 549.608 1050.89V1054.63C549.608 1056.04 550.408 1056.22 550.92 1056.22C551.432 1056.22 552.232 1056.04 552.232 1054.63V1050.89C552.232 1050.33 552.6 1049.91 553.176 1049.91C553.752 1049.91 554.12 1050.33 554.12 1050.89V1054.78C554.12 1057.37 552.328 1057.98 550.968 1057.98ZM562.359 1057.91C561.783 1057.91 561.415 1057.5 561.415 1056.92V1053.5C561.415 1052.07 560.583 1051.53 559.607 1051.53C558.631 1051.53 557.799 1052.07 557.799 1053.5V1056.92C557.799 1057.5 557.431 1057.91 556.855 1057.91C556.279 1057.91 555.911 1057.5 555.911 1056.92V1053.4C555.911 1050.78 557.735 1049.78 559.607 1049.78C561.479 1049.78 563.303 1050.78 563.303 1053.4V1056.92C563.303 1057.5 562.919 1057.91 562.359 1057.91ZM566.107 1046.66C566.667 1046.66 567.035 1047.08 567.035 1047.66V1056.92C567.035 1057.5 566.667 1057.91 566.107 1057.91C565.531 1057.91 565.163 1057.5 565.163 1056.92V1047.66C565.163 1047.08 565.531 1046.66 566.107 1046.66ZM572.768 1058.04C570.336 1058.04 568.592 1056.28 568.592 1053.91C568.592 1051.53 570.336 1049.78 572.768 1049.78C575.2 1049.78 576.944 1051.53 576.944 1053.91C576.944 1056.28 575.2 1058.04 572.768 1058.04ZM572.768 1056.28C574.176 1056.28 575.056 1055.26 575.056 1053.91C575.056 1052.57 574.176 1051.53 572.768 1051.53C571.36 1051.53 570.48 1052.57 570.48 1053.91C570.48 1055.26 571.36 1056.28 572.768 1056.28ZM572.768 1054.71C572.288 1054.71 571.968 1054.38 571.968 1053.91C571.968 1053.45 572.288 1053.1 572.768 1053.1C573.248 1053.1 573.584 1053.45 573.584 1053.91C573.584 1054.38 573.248 1054.71 572.768 1054.71ZM582.266 1056.26C582.81 1056.28 583.162 1056.57 583.162 1057.14C583.146 1057.7 582.81 1058.02 582.234 1058.02C579.818 1058.02 578.138 1056.26 578.138 1053.88C578.138 1051.43 579.882 1049.77 582.394 1049.77C584.746 1049.77 586.33 1051.16 586.33 1053.5V1056.92C586.33 1057.5 585.946 1057.91 585.386 1057.91C584.81 1057.91 584.442 1057.5 584.442 1056.92V1053.78C584.442 1052.39 583.818 1051.54 582.41 1051.54C580.89 1051.54 580.026 1052.57 580.026 1053.86C580.026 1055.21 580.922 1056.23 582.266 1056.26ZM591.97 1051.66C590.626 1051.67 589.714 1052.6 589.714 1053.88C589.714 1055.02 590.402 1056.28 592.098 1056.28C593.458 1056.28 594.13 1055.45 594.13 1054.17V1047.66C594.13 1047.08 594.514 1046.66 595.074 1046.66C595.65 1046.66 596.018 1047.08 596.018 1047.66V1054.3C596.018 1056.52 594.434 1058.04 592.05 1058.04C589.57 1058.04 587.826 1056.33 587.826 1053.91C587.826 1051.53 589.554 1049.9 591.938 1049.9H592.322C592.898 1049.9 593.234 1050.2 593.25 1050.76C593.25 1051.34 592.898 1051.64 592.37 1051.66H591.97Z" fill="white"/>
<g filter="url(#filter3_d_34_372)">
<path d="M922.722 1008.52C923.457 1003.62 927.662 1000 932.612 1000H1050.39C1056.5 1000 1061.18 1005.44 1060.28 1011.48L1050 1080H912L922.722 1008.52Z" fill="#394642"/>
<path d="M922.722 1008.52C923.457 1003.62 927.662 1000 932.612 1000H1050.39C1056.5 1000 1061.18 1005.44 1060.28 1011.48L1050 1080H912L922.722 1008.52Z" fill="url(#paint5_linear_34_372)"/>
</g>
<path d="M961.561 1056.71C961.641 1057.29 961.449 1057.78 960.873 1057.9C960.297 1057.99 959.801 1057.67 959.721 1057.05L959.081 1051.22L957.273 1055.24C957.097 1055.64 956.777 1055.86 956.393 1055.86C956.009 1055.86 955.673 1055.64 955.497 1055.24L953.721 1051.24L953.081 1057.05C953.001 1057.67 952.505 1057.99 951.929 1057.9C951.337 1057.8 951.161 1057.29 951.241 1056.71L952.169 1048.36C952.249 1047.75 952.681 1047.45 953.145 1047.45C953.545 1047.45 953.849 1047.67 954.009 1048.04L956.393 1053.08L958.777 1048.04C958.937 1047.67 959.241 1047.45 959.625 1047.45C960.153 1047.45 960.553 1047.8 960.633 1048.34L961.561 1056.71ZM967.055 1058.04C964.623 1058.04 962.879 1056.28 962.879 1053.91C962.879 1051.53 964.623 1049.78 967.055 1049.78C969.487 1049.78 971.231 1051.53 971.231 1053.91C971.231 1056.28 969.487 1058.04 967.055 1058.04ZM967.055 1056.28C968.463 1056.28 969.343 1055.26 969.343 1053.91C969.343 1052.57 968.463 1051.53 967.055 1051.53C965.647 1051.53 964.767 1052.57 964.767 1053.91C964.767 1055.26 965.647 1056.28 967.055 1056.28ZM967.055 1054.71C966.575 1054.71 966.255 1054.38 966.255 1053.91C966.255 1053.45 966.575 1053.1 967.055 1053.1C967.535 1053.1 967.871 1053.45 967.871 1053.91C967.871 1054.38 967.535 1054.71 967.055 1054.71ZM977.305 1049.83C977.865 1049.94 978.153 1050.33 978.073 1050.9C977.977 1051.45 977.561 1051.72 976.985 1051.61C976.857 1051.59 976.713 1051.58 976.569 1051.58C975.481 1051.56 974.617 1052.52 974.617 1054.81V1056.92C974.617 1057.5 974.249 1057.91 973.673 1057.91C973.097 1057.91 972.729 1057.5 972.729 1056.92V1050.89C972.729 1050.31 973.097 1049.9 973.673 1049.9C974.201 1049.9 974.569 1050.26 974.585 1050.82V1051.02H974.665C975.065 1050.23 975.977 1049.77 976.761 1049.77C976.985 1049.77 977.161 1049.8 977.305 1049.83ZM984.517 1055.9C985.077 1055.62 985.493 1055.69 985.781 1056.2C986.069 1056.7 985.957 1057.08 985.445 1057.43C984.901 1057.78 984.037 1058.04 982.981 1058.04C980.229 1058.04 978.597 1056.25 978.597 1053.93C978.597 1051.48 980.421 1049.78 982.789 1049.78C985.013 1049.78 986.549 1051.19 986.549 1053.32C986.549 1054.1 986.053 1054.68 985.253 1054.68H982.725C982.197 1054.68 981.845 1054.41 981.845 1053.88C981.845 1053.35 982.197 1053.08 982.725 1053.08H984.741C984.741 1052.31 983.973 1051.45 982.757 1051.45C981.413 1051.45 980.469 1052.5 980.469 1053.9C980.469 1055.24 981.333 1056.34 982.901 1056.34C983.621 1056.34 984.101 1056.12 984.517 1055.9ZM995.076 1056.09C995.636 1056.09 996.036 1056.46 996.036 1057C996.036 1057.54 995.636 1057.91 995.076 1057.91H992.852C992.276 1057.91 991.892 1057.54 991.892 1057C991.892 1056.46 992.276 1056.09 992.852 1056.09H993.012V1049.29H992.852C992.276 1049.29 991.892 1048.92 991.892 1048.38C991.892 1047.83 992.276 1047.46 992.852 1047.46H995.076C995.636 1047.46 996.036 1047.83 996.036 1048.38C996.036 1048.92 995.636 1049.29 995.076 1049.29H994.9V1056.09H995.076ZM1003.88 1057.91C1003.3 1057.91 1002.94 1057.5 1002.94 1056.92V1053.5C1002.94 1052.07 1002.1 1051.53 1001.13 1051.53C1000.15 1051.53 999.321 1052.07 999.321 1053.5V1056.92C999.321 1057.5 998.953 1057.91 998.377 1057.91C997.801 1057.91 997.433 1057.5 997.433 1056.92V1053.4C997.433 1050.78 999.257 1049.78 1001.13 1049.78C1003 1049.78 1004.82 1050.78 1004.82 1053.4V1056.92C1004.82 1057.5 1004.44 1057.91 1003.88 1057.91ZM1011.32 1046.65C1011.87 1046.65 1012.24 1046.95 1012.24 1047.51C1012.24 1048.06 1011.87 1048.38 1011.32 1048.38H1010.27C1009.04 1048.38 1008.56 1049.11 1008.56 1050.33V1056.92C1008.56 1057.5 1008.19 1057.91 1007.63 1057.91C1007.05 1057.91 1006.68 1057.5 1006.68 1056.92V1050.31C1006.68 1048.02 1007.93 1046.65 1010.25 1046.65H1011.32ZM1010.96 1049.91C1011.52 1049.91 1011.92 1050.22 1011.92 1050.81C1011.92 1051.4 1011.52 1051.72 1010.96 1051.72H1010.2C1009.64 1051.72 1009.23 1051.4 1009.23 1050.81C1009.23 1050.22 1009.64 1049.91 1010.2 1049.91H1010.96ZM1016.7 1058.04C1014.26 1058.04 1012.52 1056.28 1012.52 1053.91C1012.52 1051.53 1014.26 1049.78 1016.7 1049.78C1019.13 1049.78 1020.87 1051.53 1020.87 1053.91C1020.87 1056.28 1019.13 1058.04 1016.7 1058.04ZM1016.7 1056.28C1018.1 1056.28 1018.98 1055.26 1018.98 1053.91C1018.98 1052.57 1018.1 1051.53 1016.7 1051.53C1015.29 1051.53 1014.41 1052.57 1014.41 1053.91C1014.41 1055.26 1015.29 1056.28 1016.7 1056.28ZM1016.7 1054.71C1016.22 1054.71 1015.9 1054.38 1015.9 1053.91C1015.9 1053.45 1016.22 1053.1 1016.7 1053.1C1017.18 1053.1 1017.51 1053.45 1017.51 1053.91C1017.51 1054.38 1017.18 1054.71 1016.7 1054.71Z" fill="white"/>
<path d="M920.004 1080.02C920.004 1078.36 921.347 1077.02 923.004 1077.02H1037.75C1039.4 1077.02 1040.75 1078.36 1040.75 1080.02H920.004Z" fill="#8C66FF"/>
<path d="M978 1023H981L984 1014L990 1032L993 1023H996" stroke="#8C66FF" stroke-width="1.5" stroke-linecap="round" stroke-linejoin="round"/>
<path d="M1561.11 995H1868.64C1874.14 995 1878.36 999.894 1877.54 1005.33L1870.04 1055.33C1869.38 1059.74 1865.59 1063 1861.14 1063H1553.61C1548.11 1063 1543.9 1058.11 1544.71 1052.67L1552.21 1002.67C1552.87 998.259 1556.66 995 1561.11 995Z" fill="#3399CC" stroke="url(#paint6_linear_34_372)" stroke-width="2"/>
<path d="M1649.29 1022.94C1652.63 1022.94 1653.93 1025.4 1653.93 1027.58C1653.93 1029.76 1652.19 1032.22 1649.37 1032.22H1648.43C1647.71 1032.22 1647.29 1031.8 1647.29 1031.1C1647.29 1030.38 1647.71 1029.96 1648.43 1029.96H1648.95C1651.11 1029.96 1651.57 1028.54 1651.57 1027.58C1651.57 1026.58 1651.07 1025.2 1649.03 1025.2H1646.25V1034.74C1646.25 1035.46 1645.77 1036 1645.05 1036C1644.31 1036 1643.85 1035.46 1643.85 1034.74V1024.2C1643.85 1023.48 1644.31 1022.94 1645.05 1022.94H1649.29ZM1656.98 1021.94C1657.68 1021.94 1658.14 1022.46 1658.14 1023.18V1034.76C1658.14 1035.48 1657.68 1036 1656.98 1036C1656.26 1036 1655.8 1035.48 1655.8 1034.76V1023.18C1655.8 1022.46 1656.26 1021.94 1656.98 1021.94ZM1665.24 1033.94C1665.92 1033.96 1666.36 1034.32 1666.36 1035.04C1666.34 1035.74 1665.92 1036.14 1665.2 1036.14C1662.18 1036.14 1660.08 1033.94 1660.08 1030.96C1660.08 1027.9 1662.26 1025.82 1665.4 1025.82C1668.34 1025.82 1670.32 1027.56 1670.32 1030.48V1034.76C1670.32 1035.48 1669.84 1036 1669.14 1036C1668.42 1036 1667.96 1035.48 1667.96 1034.76V1030.84C1667.96 1029.1 1667.18 1028.04 1665.42 1028.04C1663.52 1028.04 1662.44 1029.32 1662.44 1030.94C1662.44 1032.62 1663.56 1033.9 1665.24 1033.94ZM1680.83 1026C1681.55 1026 1682.01 1026.52 1682.01 1027.22V1034.5C1682.01 1037 1680.53 1038.4 1679.09 1038.9C1678.41 1039.12 1677.77 1038.9 1677.55 1038.24C1677.33 1037.58 1677.67 1037.14 1678.27 1036.84C1679.09 1036.42 1679.81 1035.64 1679.81 1034.3V1034.28H1679.69C1679.17 1035.02 1678.31 1035.72 1676.73 1035.72C1674.69 1035.72 1672.57 1034.54 1672.57 1031.3V1027.22C1672.57 1026.52 1673.03 1026 1673.75 1026C1674.47 1026 1674.93 1026.52 1674.93 1027.22V1031.1C1674.93 1033.18 1676.05 1033.58 1677.33 1033.56C1678.93 1033.54 1679.65 1032.68 1679.65 1031.94V1027.22C1679.65 1026.52 1680.11 1026 1680.83 1026ZM1699.38 1034.3C1699.64 1034.96 1699.4 1035.64 1698.72 1035.92C1698.06 1036.2 1697.4 1035.86 1697.14 1035.18L1693.88 1026.4L1690.62 1035.18C1690.36 1035.86 1689.72 1036.2 1689.04 1035.92C1688.36 1035.64 1688.12 1034.96 1688.38 1034.3L1692.72 1023.62C1692.94 1023.06 1693.38 1022.78 1693.88 1022.78C1694.38 1022.78 1694.84 1023.06 1695.04 1023.62L1699.38 1034.3ZM1695.46 1032.7C1695.46 1033.38 1694.98 1033.78 1694.3 1033.78H1693.46C1692.78 1033.78 1692.32 1033.38 1692.32 1032.7C1692.32 1032.02 1692.78 1031.6 1693.46 1031.6H1694.3C1694.98 1031.6 1695.46 1032.02 1695.46 1032.7ZM1705.63 1033.8C1706.31 1033.82 1706.75 1034.18 1706.75 1034.9C1706.73 1035.6 1706.31 1036 1705.59 1036C1702.57 1036 1700.47 1033.9 1700.47 1030.92C1700.47 1027.94 1702.61 1025.84 1705.87 1025.84C1708.87 1025.84 1710.87 1027.56 1710.87 1030.48V1034.5C1710.87 1037.04 1709.25 1038.54 1707.95 1038.9C1707.15 1039.1 1706.65 1038.88 1706.43 1038.24C1706.15 1037.42 1706.75 1037.06 1707.13 1036.84C1707.95 1036.38 1708.53 1035.76 1708.53 1034.36V1030.8C1708.53 1029.1 1707.67 1028.04 1705.85 1028.04C1703.73 1028.04 1702.83 1029.48 1702.83 1030.92C1702.83 1032.56 1703.95 1033.78 1705.63 1033.8ZM1717.92 1033.94C1718.6 1033.96 1719.04 1034.32 1719.04 1035.04C1719.02 1035.74 1718.6 1036.14 1717.88 1036.14C1714.86 1036.14 1712.76 1033.94 1712.76 1030.96C1712.76 1027.9 1714.94 1025.82 1718.08 1025.82C1721.02 1025.82 1723 1027.56 1723 1030.48V1034.76C1723 1035.48 1722.52 1036 1721.82 1036C1721.1 1036 1720.64 1035.48 1720.64 1034.76V1030.84C1720.64 1029.1 1719.86 1028.04 1718.1 1028.04C1716.2 1028.04 1715.12 1029.32 1715.12 1030.94C1715.12 1032.62 1716.24 1033.9 1717.92 1033.94ZM1726.57 1024.36C1725.75 1024.36 1725.17 1023.76 1725.17 1022.96C1725.17 1022.16 1725.75 1021.56 1726.57 1021.56C1727.37 1021.56 1727.95 1022.16 1727.95 1022.96C1727.95 1023.76 1727.37 1024.36 1726.57 1024.36ZM1726.57 1026C1727.27 1026 1727.73 1026.52 1727.73 1027.22V1034.76C1727.73 1035.48 1727.27 1036 1726.57 1036C1725.85 1036 1725.39 1035.48 1725.39 1034.76V1027.22C1725.39 1026.52 1725.85 1026 1726.57 1026ZM1738.17 1036C1737.45 1036 1736.99 1035.48 1736.99 1034.76V1030.48C1736.99 1028.7 1735.95 1028.02 1734.73 1028.02C1733.51 1028.02 1732.47 1028.7 1732.47 1030.48V1034.76C1732.47 1035.48 1732.01 1036 1731.29 1036C1730.57 1036 1730.11 1035.48 1730.11 1034.76V1030.36C1730.11 1027.08 1732.39 1025.84 1734.73 1025.84C1737.07 1025.84 1739.35 1027.08 1739.35 1030.36V1034.76C1739.35 1035.48 1738.87 1036 1738.17 1036Z" fill="white"/>
<path d="M1851.22 1023.67C1850.19 1021.29 1848.48 1019.26 1846.31 1017.84C1844.13 1016.42 1841.6 1015.67 1839 1015.67C1832.09 1015.67 1826.4 1020.93 1825.73 1027.67M1845.67 1023.67H1851.53C1851.64 1023.67 1851.74 1023.65 1851.84 1023.61C1851.94 1023.57 1852.02 1023.51 1852.1 1023.43C1852.17 1023.36 1852.23 1023.27 1852.27 1023.17C1852.31 1023.08 1852.33 1022.97 1852.33 1022.87V1017M1826.84 1034.33C1828.9 1039.04 1833.6 1042.33 1839.07 1042.33C1845.98 1042.33 1851.67 1037.07 1852.33 1030.33M1832.4 1034.33H1826.53C1826.32 1034.33 1826.12 1034.42 1825.97 1034.57C1825.82 1034.72 1825.73 1034.92 1825.73 1035.13V1041" stroke="white" stroke-width="2" stroke-linecap="round" stroke-linejoin="round"/>
<g filter="url(#filter4_d_34_372)">
<path d="M780.722 1008.52C781.457 1003.62 785.662 1000 790.612 1000H908.388C914.501 1000 919.184 1005.44 918.277 1011.48L908 1080H770L780.722 1008.52Z" fill="#394642"/>
<path d="M780.722 1008.52C781.457 1003.62 785.662 1000 790.612 1000H908.388C914.501 1000 919.184 1005.44 918.277 1011.48L908 1080H770L780.722 1008.52Z" fill="url(#paint7_linear_34_372)"/>
</g>
<path d="M822.856 1057.77C822.408 1058.07 821.848 1057.98 821.528 1057.5C821.208 1057.06 820.616 1056.12 820.296 1055.67C819.992 1055.19 819.464 1054.38 818.584 1054.38C818.04 1054.38 817.704 1054.02 817.704 1053.53C817.704 1053.03 818.04 1052.68 818.584 1052.68H819.016C820.632 1052.68 821.016 1051.69 821.016 1050.89C821.016 1050.1 820.632 1049.26 819.096 1049.26H816.888V1056.9C816.888 1057.48 816.504 1057.91 815.928 1057.91C815.336 1057.91 814.968 1057.48 814.968 1056.9V1048.47C814.968 1047.9 815.336 1047.46 815.928 1047.46H819.352C821.848 1047.46 822.904 1049.08 822.904 1050.82C822.904 1052.06 822.232 1053.22 821.16 1053.85C821.448 1054.1 821.704 1054.38 821.928 1054.71C822.216 1055.1 822.792 1056.01 823.08 1056.42C823.384 1056.9 823.304 1057.46 822.856 1057.77ZM828.538 1056.26C829.082 1056.28 829.434 1056.57 829.434 1057.14C829.418 1057.7 829.082 1058.02 828.506 1058.02C826.09 1058.02 824.41 1056.26 824.41 1053.88C824.41 1051.43 826.154 1049.77 828.666 1049.77C831.018 1049.77 832.602 1051.16 832.602 1053.5V1056.92C832.602 1057.5 832.218 1057.91 831.658 1057.91C831.082 1057.91 830.714 1057.5 830.714 1056.92V1053.78C830.714 1052.39 830.09 1051.54 828.682 1051.54C827.162 1051.54 826.298 1052.57 826.298 1053.86C826.298 1055.21 827.194 1056.23 828.538 1056.26ZM840.849 1057.91C840.273 1057.91 839.905 1057.5 839.905 1056.92V1053.5C839.905 1052.07 839.073 1051.53 838.097 1051.53C837.121 1051.53 836.289 1052.07 836.289 1053.5V1056.92C836.289 1057.5 835.921 1057.91 835.345 1057.91C834.769 1057.91 834.401 1057.5 834.401 1056.92V1053.4C834.401 1050.78 836.225 1049.78 838.097 1049.78C839.969 1049.78 841.793 1050.78 841.793 1053.4V1056.92C841.793 1057.5 841.409 1057.91 840.849 1057.91ZM844.533 1046.66C845.109 1046.66 845.477 1047.08 845.477 1047.66V1056.92C845.477 1057.5 845.109 1057.91 844.533 1057.91C843.957 1057.91 843.589 1057.5 843.589 1056.92V1047.66C843.589 1047.08 843.957 1046.66 844.533 1046.66ZM850.565 1056.66C850.757 1057.22 850.517 1057.72 849.909 1057.88C849.397 1058.01 848.949 1057.69 848.757 1057.16L848.069 1055.51C847.829 1054.92 847.573 1054.52 846.773 1054.52C846.229 1054.52 845.861 1054.2 845.861 1053.64C845.861 1053.06 846.229 1052.74 846.773 1052.74C847.333 1052.74 847.557 1052.39 847.829 1051.83L848.421 1050.63C848.645 1050.09 849.029 1049.78 849.589 1049.94C850.117 1050.09 850.437 1050.57 850.229 1051.14L849.717 1052.25C849.525 1052.68 849.173 1053.24 848.581 1053.5C849.205 1053.7 849.573 1054.15 849.813 1054.79L850.565 1056.66ZM853.129 1048.6C852.473 1048.6 852.009 1048.12 852.009 1047.48C852.009 1046.84 852.473 1046.36 853.129 1046.36C853.769 1046.36 854.233 1046.84 854.233 1047.48C854.233 1048.12 853.769 1048.6 853.129 1048.6ZM853.129 1049.91C853.689 1049.91 854.057 1050.33 854.057 1050.89V1056.92C854.057 1057.5 853.689 1057.91 853.129 1057.91C852.553 1057.91 852.185 1057.5 852.185 1056.92V1050.89C852.185 1050.33 852.553 1049.91 853.129 1049.91ZM862.412 1057.91C861.836 1057.91 861.468 1057.5 861.468 1056.92V1053.5C861.468 1052.07 860.636 1051.53 859.66 1051.53C858.684 1051.53 857.852 1052.07 857.852 1053.5V1056.92C857.852 1057.5 857.484 1057.91 856.908 1057.91C856.332 1057.91 855.964 1057.5 855.964 1056.92V1053.4C855.964 1050.78 857.788 1049.78 859.66 1049.78C861.532 1049.78 863.356 1050.78 863.356 1053.4V1056.92C863.356 1057.5 862.972 1057.91 862.412 1057.91ZM868.975 1056.15C869.519 1056.17 869.871 1056.46 869.871 1057.03C869.855 1057.59 869.519 1057.91 868.943 1057.91C866.527 1057.91 864.847 1056.23 864.847 1053.85C864.847 1051.46 866.559 1049.78 869.167 1049.78C871.567 1049.78 873.167 1051.16 873.167 1053.5V1056.71C873.167 1058.74 871.871 1059.94 870.831 1060.23C870.191 1060.39 869.791 1060.22 869.615 1059.7C869.391 1059.05 869.871 1058.76 870.175 1058.58C870.831 1058.22 871.295 1057.72 871.295 1056.6V1053.75C871.295 1052.39 870.607 1051.54 869.151 1051.54C867.455 1051.54 866.735 1052.7 866.735 1053.85C866.735 1055.16 867.631 1056.14 868.975 1056.15Z" fill="white"/>
<path d="M778.004 1080.02C778.004 1078.36 779.347 1077.02 781.004 1077.02H895.747C897.404 1077.02 898.747 1078.36 898.747 1080.02H778.004Z" fill="#8C66FF"/>
<g clip-path="url(#clip1_34_372)">
<path d="M848.619 1032H842.619M848.619 1032V1023.6C848.619 1023.44 848.556 1023.29 848.443 1023.18C848.331 1023.06 848.178 1023 848.019 1023H843.219C843.06 1023 842.907 1023.06 842.795 1023.18C842.682 1023.29 842.619 1023.44 842.619 1023.6V1032M848.619 1032H854.019C854.178 1032 854.331 1031.94 854.443 1031.82C854.556 1031.71 854.619 1031.56 854.619 1031.4V1029.1C854.619 1028.94 854.556 1028.79 854.443 1028.68C854.331 1028.56 854.178 1028.5 854.019 1028.5H849.219C849.06 1028.5 848.907 1028.56 848.795 1028.68C848.682 1028.79 848.619 1028.94 848.619 1029.1V1032ZM842.619 1032V1027.1C842.619 1026.94 842.556 1026.79 842.443 1026.68C842.331 1026.56 842.178 1026.5 842.019 1026.5H837.219C837.06 1026.5 836.907 1026.56 836.795 1026.68C836.682 1026.79 836.619 1026.94 836.619 1027.1V1031.4C836.619 1031.56 836.682 1031.71 836.795 1031.82C836.907 1031.94 837.06 1032 837.219 1032H842.619ZM844.425 1016.11L845.334 1014.19C845.359 1014.13 845.399 1014.08 845.449 1014.05C845.5 1014.02 845.559 1014 845.619 1014C845.679 1014 845.738 1014.02 845.789 1014.05C845.84 1014.08 845.88 1014.13 845.904 1014.19L846.814 1016.11L848.846 1016.42C849.107 1016.46 849.211 1016.8 849.022 1016.99L847.552 1018.49L847.899 1020.61C847.943 1020.88 847.671 1021.09 847.437 1020.96L845.619 1019.96L843.801 1020.96C843.568 1021.09 843.295 1020.88 843.339 1020.61L843.686 1018.49L842.216 1016.99C842.026 1016.8 842.131 1016.46 842.391 1016.42L844.425 1016.11Z" stroke="#8C66FF" stroke-width="1.5" stroke-linecap="round" stroke-linejoin="round"/>
</g>
<g filter="url(#filter5_d_34_372)">
<path d="M638.722 1008.52C639.457 1003.62 643.662 1000 648.612 1000H766.388C772.501 1000 777.184 1005.44 776.277 1011.48L766 1080H628L638.722 1008.52Z" fill="#394642"/>
<path d="M638.722 1008.52C639.457 1003.62 643.662 1000 648.612 1000H766.388C772.501 1000 777.184 1005.44 776.277 1011.48L766 1080H628L638.722 1008.52Z" fill="url(#paint8_linear_34_372)"/>
</g>
<path d="M662.854 1050.21C662.854 1050.98 663.718 1051.25 665.142 1051.67C666.518 1052.05 668.454 1052.72 668.454 1054.79C668.454 1056.55 667.03 1058.02 664.662 1058.02C662.71 1058.02 661.398 1057.03 660.918 1056.47C660.454 1055.91 660.598 1055.46 660.934 1055.11C661.462 1054.58 661.862 1054.75 662.278 1055.09C662.71 1055.46 663.414 1056.23 664.726 1056.23C665.958 1056.23 666.566 1055.52 666.566 1054.9C666.566 1054.16 665.766 1053.89 663.83 1053.28C662.246 1052.82 660.998 1052.16 660.998 1050.43C660.998 1048.58 662.454 1047.31 664.502 1047.31C665.99 1047.31 667.19 1047.99 667.718 1048.59C668.182 1049.11 668.118 1049.51 667.702 1049.94C667.302 1050.34 666.886 1050.45 666.406 1050C666.23 1049.84 665.638 1049.09 664.454 1049.09C663.542 1049.09 662.854 1049.54 662.854 1050.21ZM675.515 1052.23C675.083 1051.79 674.571 1051.51 673.883 1051.51C672.523 1051.51 671.595 1052.59 671.595 1053.89C671.595 1055.19 672.523 1056.26 673.883 1056.26C674.587 1056.26 675.099 1055.97 675.531 1055.54C675.931 1055.14 676.395 1055.14 676.811 1055.54C677.195 1055.94 677.259 1056.43 676.827 1056.85C676.091 1057.59 675.099 1058.02 673.883 1058.02C671.451 1058.02 669.707 1056.26 669.707 1053.89C669.707 1051.51 671.451 1049.76 673.883 1049.76C675.115 1049.76 676.107 1050.19 676.827 1050.91C677.227 1051.31 677.131 1051.79 676.731 1052.19C676.299 1052.59 675.883 1052.61 675.515 1052.23ZM683.196 1049.81C683.756 1049.92 684.044 1050.31 683.964 1050.88C683.868 1051.43 683.452 1051.7 682.876 1051.59C682.748 1051.57 682.604 1051.55 682.46 1051.55C681.372 1051.54 680.508 1052.5 680.508 1054.79V1056.9C680.508 1057.47 680.14 1057.89 679.564 1057.89C678.988 1057.89 678.62 1057.47 678.62 1056.9V1050.87C678.62 1050.29 678.988 1049.87 679.564 1049.87C680.092 1049.87 680.46 1050.24 680.476 1050.8V1050.99H680.556C680.956 1050.21 681.868 1049.75 682.652 1049.75C682.876 1049.75 683.052 1049.78 683.196 1049.81ZM690.408 1055.87C690.968 1055.6 691.384 1055.67 691.672 1056.18C691.96 1056.67 691.848 1057.06 691.336 1057.41C690.792 1057.76 689.928 1058.02 688.872 1058.02C686.12 1058.02 684.488 1056.23 684.488 1053.91C684.488 1051.46 686.312 1049.76 688.68 1049.76C690.904 1049.76 692.44 1051.17 692.44 1053.3C692.44 1054.08 691.944 1054.66 691.144 1054.66H688.616C688.088 1054.66 687.736 1054.39 687.736 1053.86C687.736 1053.33 688.088 1053.06 688.616 1053.06H690.632C690.632 1052.29 689.864 1051.43 688.648 1051.43C687.304 1051.43 686.36 1052.48 686.36 1053.87C686.36 1055.22 687.224 1056.32 688.792 1056.32C689.512 1056.32 689.992 1056.1 690.408 1055.87ZM699.564 1055.87C700.124 1055.6 700.54 1055.67 700.828 1056.18C701.116 1056.67 701.004 1057.06 700.492 1057.41C699.948 1057.76 699.084 1058.02 698.028 1058.02C695.276 1058.02 693.644 1056.23 693.644 1053.91C693.644 1051.46 695.468 1049.76 697.836 1049.76C700.06 1049.76 701.596 1051.17 701.596 1053.3C701.596 1054.08 701.1 1054.66 700.3 1054.66H697.772C697.244 1054.66 696.892 1054.39 696.892 1053.86C696.892 1053.33 697.244 1053.06 697.772 1053.06H699.788C699.788 1052.29 699.02 1051.43 697.804 1051.43C696.46 1051.43 695.516 1052.48 695.516 1053.87C695.516 1055.22 696.38 1056.32 697.948 1056.32C698.668 1056.32 699.148 1056.1 699.564 1055.87ZM709.459 1057.89C708.883 1057.89 708.515 1057.47 708.515 1056.9V1053.47C708.515 1052.05 707.683 1051.51 706.707 1051.51C705.731 1051.51 704.899 1052.05 704.899 1053.47V1056.9C704.899 1057.47 704.531 1057.89 703.955 1057.89C703.379 1057.89 703.011 1057.47 703.011 1056.9V1053.38C703.011 1050.75 704.835 1049.76 706.707 1049.76C708.579 1049.76 710.403 1050.75 710.403 1053.38V1056.9C710.403 1057.47 710.019 1057.89 709.459 1057.89ZM713.974 1052.05C713.974 1052.58 714.518 1052.77 715.558 1053.01C716.998 1053.36 718.374 1053.73 718.374 1055.51C718.374 1057.23 717.094 1058.02 715.254 1058.02C713.734 1058.02 712.63 1057.49 712.118 1056.88C711.718 1056.4 711.766 1055.99 712.15 1055.62C712.63 1055.15 713.046 1055.35 713.318 1055.59C713.75 1055.99 714.278 1056.4 715.302 1056.4C716.07 1056.4 716.55 1056.15 716.55 1055.63C716.55 1055.12 716.038 1054.95 714.694 1054.58C713.366 1054.21 712.182 1053.86 712.182 1052.27C712.182 1050.5 713.622 1049.76 715.222 1049.76C716.134 1049.76 717.174 1050 717.814 1050.69C718.086 1050.96 718.294 1051.35 717.814 1051.87C717.334 1052.37 716.982 1052.23 716.646 1051.97C716.342 1051.75 715.814 1051.36 715.014 1051.36C714.47 1051.36 713.974 1051.54 713.974 1052.05ZM724.048 1049.76C725.68 1049.76 727.2 1050.64 727.2 1053.03V1056.9C727.2 1057.47 726.832 1057.89 726.256 1057.89C725.68 1057.89 725.312 1057.47 725.312 1056.9V1053.23C725.312 1051.75 724.544 1051.51 723.632 1051.51C722.112 1051.51 721.696 1052.4 721.696 1052.87V1056.9C721.696 1057.47 721.328 1057.89 720.752 1057.89C720.176 1057.89 719.808 1057.47 719.808 1056.9V1047.63C719.808 1047.06 720.176 1046.64 720.752 1046.64C721.328 1046.64 721.696 1047.06 721.696 1047.63V1050.79H721.792C722.176 1050.24 722.944 1049.76 724.048 1049.76ZM732.867 1058.02C730.435 1058.02 728.691 1056.26 728.691 1053.89C728.691 1051.51 730.435 1049.76 732.867 1049.76C735.299 1049.76 737.043 1051.51 737.043 1053.89C737.043 1056.26 735.299 1058.02 732.867 1058.02ZM732.867 1056.26C734.275 1056.26 735.155 1055.23 735.155 1053.89C735.155 1052.55 734.275 1051.51 732.867 1051.51C731.459 1051.51 730.579 1052.55 730.579 1053.89C730.579 1055.23 731.459 1056.26 732.867 1056.26ZM732.867 1054.69C732.387 1054.69 732.067 1054.35 732.067 1053.89C732.067 1053.43 732.387 1053.07 732.867 1053.07C733.347 1053.07 733.683 1053.43 733.683 1053.89C733.683 1054.35 733.347 1054.69 732.867 1054.69ZM742.398 1056.13C742.958 1056.13 743.326 1056.43 743.326 1057.01C743.326 1057.59 742.958 1057.89 742.398 1057.89H741.646C739.646 1057.89 738.542 1056.9 738.542 1054.63V1048.4C738.542 1047.83 738.91 1047.41 739.486 1047.41C740.062 1047.41 740.43 1047.83 740.43 1048.4V1054.34C740.43 1055.55 740.782 1056.13 741.678 1056.13H742.398ZM742.046 1051.68C741.502 1051.68 741.086 1051.36 741.086 1050.79C741.086 1050.19 741.502 1049.87 742.046 1049.87H742.366C742.91 1049.87 743.31 1050.19 743.31 1050.79C743.31 1051.36 742.91 1051.68 742.366 1051.68H742.046Z" fill="white"/>
<path d="M636.75 1080C636.75 1078.34 638.093 1077 639.75 1077H754.493C756.15 1077 757.493 1078.34 757.493 1080H636.75Z" fill="#FF66AB"/>
<path d="M694.619 1030V1020C694.619 1019.47 694.83 1018.96 695.205 1018.59C695.58 1018.21 696.089 1018 696.619 1018H697.119C697.43 1018 697.736 1017.93 698.014 1017.79C698.291 1017.65 698.533 1017.45 698.719 1017.2L700.939 1014.24C700.995 1014.17 701.067 1014.11 701.151 1014.06C701.234 1014.02 701.326 1014 701.419 1014H707.819C707.912 1014 708.004 1014.02 708.087 1014.06C708.171 1014.11 708.243 1014.17 708.299 1014.24L710.519 1017.2C710.705 1017.45 710.947 1017.65 711.225 1017.79C711.502 1017.93 711.809 1018 712.119 1018H712.619C713.15 1018 713.658 1018.21 714.033 1018.59C714.408 1018.96 714.619 1019.47 714.619 1020V1030C714.619 1030.53 714.408 1031.04 714.033 1031.41C713.658 1031.79 713.15 1032 712.619 1032H696.619C696.089 1032 695.58 1031.79 695.205 1031.41C694.83 1031.04 694.619 1030.53 694.619 1030Z" stroke="#FF66AB" stroke-width="1.5" stroke-linecap="round" stroke-linejoin="round"/>
<path d="M704.619 1028C705.68 1028 706.697 1027.58 707.448 1026.83C708.198 1026.08 708.619 1025.06 708.619 1024C708.619 1022.94 708.198 1021.92 707.448 1021.17C706.697 1020.42 705.68 1020 704.619 1020C703.558 1020 702.541 1020.42 701.791 1021.17C701.041 1021.92 700.619 1022.94 700.619 1024C700.619 1025.06 701.041 1026.08 701.791 1026.83C702.541 1027.58 703.558 1028 704.619 1028Z" stroke="#FF66AB" stroke-width="1.5" stroke-linecap="round" stroke-linejoin="round"/>
<path d="M104.786 703.776C105.39 699.877 108.746 697 112.692 697H250.628C255.547 697 259.301 701.398 258.529 706.256L249.944 760.256C249.327 764.141 245.977 767 242.043 767H104.334C99.4275 767 95.6772 762.625 96.4277 757.776L104.786 703.776Z" fill="#2E3835"/>
<path d="M91.3725 777.778C91.9754 773.878 95.3323 771 99.2786 771H554.63C559.548 771 563.302 775.397 562.531 780.254L557.45 812.254C556.833 816.14 553.483 819 549.549 819H94.3318C89.4263 819 85.6762 814.626 86.4257 809.778L91.3725 777.778Z" fill="#2E3835"/>
<path d="M263.786 703.776C264.39 699.877 267.746 697 271.692 697H409.628C414.547 697 418.301 701.398 417.529 706.256L408.944 760.256C408.327 764.141 404.977 767 401.043 767H263.334C258.428 767 254.677 762.625 255.428 757.776L263.786 703.776Z" fill="#2E3835"/>
<path d="M117.456 799.448C117.552 800.232 117.216 800.84 116.496 800.968C115.728 801.112 115.072 800.648 114.976 799.848L114.496 795.336L113.168 798.472C112.976 799 112.544 799.304 112 799.304C111.424 799.304 111.008 799 110.816 798.472L109.504 795.336L109.04 799.848C108.944 800.648 108.272 801.112 107.504 800.968C106.784 800.856 106.464 800.232 106.56 799.448L107.456 791.672C107.568 790.856 108.096 790.472 108.72 790.472C109.248 790.472 109.616 790.744 109.888 791.288L112 795.592L114.096 791.288C114.368 790.744 114.736 790.472 115.264 790.472C115.92 790.472 116.448 790.872 116.56 791.656L117.456 799.448ZM123.984 801.128C120.832 801.128 118.56 798.904 118.56 795.768C118.56 792.616 120.832 790.36 123.984 790.36C127.136 790.36 129.408 792.616 129.408 795.768C129.408 798.904 127.152 801.128 123.984 801.128ZM123.984 798.696C125.696 798.696 126.816 797.464 126.816 795.768C126.816 794.056 125.696 792.792 123.984 792.792C122.288 792.792 121.152 794.056 121.152 795.768C121.152 797.464 122.288 798.696 123.984 798.696ZM134.656 790.488C137.936 790.488 139.808 792.632 139.808 795.704C139.808 798.728 138.032 801 134.752 801H132.032C131.28 801 130.752 800.424 130.752 799.672V791.816C130.752 791.064 131.28 790.488 132.032 790.488H134.656ZM134.752 798.584C136.672 798.584 137.232 797.256 137.232 795.704C137.232 794.088 136.592 792.904 134.656 792.904H133.296V798.584H134.752ZM143.452 793.352C143.452 793.864 143.996 794.104 145.18 794.424C147.148 794.936 148.844 795.768 148.844 797.816C148.844 799.8 147.196 801.128 144.844 801.128C142.988 801.128 141.58 800.328 141.052 799.816C140.428 799.208 140.556 798.504 140.956 798.04C141.436 797.512 142.028 797.48 142.812 797.96C143.148 798.2 143.948 798.84 145.036 798.84C145.916 798.84 146.284 798.392 146.284 797.976C146.284 797.464 145.628 797.208 144.012 796.744C141.996 796.216 140.94 795.352 140.94 793.624C140.94 791.528 142.684 790.36 144.732 790.36C146.044 790.36 147.228 790.872 147.772 791.336C148.524 791.912 148.54 792.584 148.076 793.144C147.628 793.688 147.02 793.8 146.268 793.32C146.012 793.144 145.42 792.6 144.556 792.6C143.9 792.6 143.452 792.936 143.452 793.352Z" fill="white"/>
<path d="M-101.057 849.476C-100.305 844.599 -96.1081 841 -91.1735 841H530.542C536.689 841 541.38 846.493 540.419 852.564L534.086 892.564C533.316 897.422 529.128 901 524.209 901H-97.3402C-103.47 901 -108.157 895.535 -107.223 889.476L-101.057 849.476Z" fill="#3C4643" fill-opacity="0.75"/>
<path d="M2302.01 897H1508.01V896.833C1315.93 891.028 1162 733.491 1162 540C1162 346.509 1315.93 188.971 1508.01 183.166V183H2302.01V897Z" fill="black" fill-opacity="0.3"/>
<path d="M1833 540C1833 711.761 1693.54 851 1521.5 851C1349.46 851 1210 711.761 1210 540C1210 368.239 1349.46 229 1521.5 229C1693.54 229 1833 368.239 1833 540ZM1240.06 540C1240.06 695.185 1366.07 820.988 1521.5 820.988C1676.93 820.988 1802.94 695.185 1802.94 540C1802.94 384.815 1676.93 259.012 1521.5 259.012C1366.07 259.012 1240.06 384.815 1240.06 540Z" fill="#333333"/>
<path d="M1502.04 221.657C1501.94 219.967 1503.23 218.513 1504.92 218.426C1509.62 218.184 1514.33 218.045 1519.04 218.009C1520.74 217.996 1522.1 219.372 1522.1 221.064V221.064C1522.1 222.757 1520.72 224.124 1519.03 224.137C1514.45 224.173 1509.87 224.308 1505.29 224.543C1503.6 224.629 1502.15 223.345 1502.04 221.657V221.657Z" fill="#BE0089"/>
<path d="M1465.43 226.017C1465.13 224.351 1466.24 222.757 1467.91 222.476C1479.22 220.574 1490.62 219.275 1502.07 218.585C1503.76 218.483 1505.2 219.785 1505.29 221.475V221.475C1505.37 223.165 1504.07 224.603 1502.38 224.705C1491.19 225.382 1480.04 226.652 1468.99 228.51C1467.32 228.79 1465.73 227.683 1465.43 226.017V226.017Z" fill="#0096A2"/>
<path d="M1390.79 248.993C1390.09 247.448 1390.78 245.631 1392.34 244.954C1415.24 234.956 1439.24 227.652 1463.84 223.188C1465.5 222.886 1467.09 224.007 1467.38 225.674V225.674C1467.66 227.342 1466.54 228.926 1464.88 229.228C1440.78 233.605 1417.28 240.759 1394.84 250.548C1393.29 251.224 1391.48 250.536 1390.79 248.993V248.993Z" fill="#72C904"/>
<path d="M1309.98 301.012C1308.86 299.743 1308.98 297.801 1310.26 296.692C1334.27 275.905 1361.24 258.777 1390.27 245.863C1391.82 245.176 1393.62 245.889 1394.3 247.44V247.44C1394.97 248.993 1394.26 250.798 1392.71 251.487C1364.27 264.145 1337.85 280.927 1314.31 301.29C1313.04 302.397 1311.1 302.279 1309.98 301.012V301.012Z" fill="#D99D03"/>
<path d="M1259.77 357.163C1258.38 356.192 1258.04 354.276 1259.03 352.897C1273.56 332.582 1290.4 314.023 1309.22 297.593C1310.5 296.48 1312.43 296.629 1313.53 297.912V297.912C1314.64 299.198 1314.49 301.135 1313.21 302.25C1294.78 318.346 1278.29 336.523 1264.05 356.417C1263.07 357.793 1261.16 358.132 1259.77 357.163V357.163Z" fill="#EA7948"/>
<path d="M1521.5 221.064C1521.5 219.372 1522.87 217.998 1524.57 218.015C1595.92 218.691 1665.07 242.982 1721.16 287.128C1778.05 331.905 1818.18 394.502 1835.09 464.831C1852 535.16 1844.7 609.125 1814.38 674.808C1784.05 740.492 1732.46 794.068 1667.91 826.904C1603.37 859.74 1529.63 869.923 1458.58 855.813C1387.54 841.702 1323.31 804.12 1276.27 749.122C1229.22 694.124 1202.09 624.913 1199.25 552.642C1196.44 481.39 1217.41 411.256 1258.8 353.219C1259.78 351.842 1261.7 351.538 1263.07 352.531V352.531C1264.44 353.527 1264.75 355.448 1263.76 356.828C1223.18 413.75 1202.63 482.528 1205.38 552.401C1208.17 623.297 1234.79 691.191 1280.94 745.143C1327.09 799.094 1390.09 835.961 1459.78 849.803C1529.48 863.645 1601.81 853.655 1665.13 821.444C1728.44 789.233 1779.05 736.677 1808.8 672.243C1838.55 607.809 1845.71 535.252 1829.12 466.261C1812.53 397.271 1773.16 335.865 1717.36 291.94C1662.36 248.647 1594.54 224.819 1524.57 224.143C1522.87 224.126 1521.5 222.756 1521.5 221.064V221.064Z" fill="#FF5858"/>
<path d="M1868 539H1882M1882 539L1875.88 532.875M1882 539L1875.88 545.125M1875 556.5C1884.67 556.5 1892.5 548.665 1892.5 539C1892.5 529.335 1884.67 521.5 1875 521.5C1865.33 521.5 1857.5 529.335 1857.5 539C1857.5 548.665 1865.33 556.5 1875 556.5Z" stroke="white" stroke-width="2.625" stroke-linecap="round" stroke-linejoin="round"/>
<g clip-path="url(#clip2_34_372)">
<rect x="1507" y="925.992" width="55.9917" height="27.9959" rx="13.9979" transform="rotate(-90 1507 925.992)" fill="#FF5A5A"/>
<g style="mix-blend-mode:darken" opacity="0.75">
<mask id="mask0_34_372" style="mask-type:alpha" maskUnits="userSpaceOnUse" x="1507" y="870" width="28" height="56">
<rect x="1507" y="925.992" width="55.9917" height="27.9959" rx="13.9979" transform="rotate(-90 1507 925.992)" fill="#FF5A5A"/>
</mask>
<g mask="url(#mask0_34_372)">
<path d="M1491.25 897.996L1543.74 867.69L1543.74 928.303L1491.25 897.996Z" fill="#FF5A5A"/>
<path d="M1512.25 877.874L1531.93 866.509L1531.93 889.239L1512.25 877.874Z" fill="#DE4949"/>
<path d="M1503.5 912.869L1515.31 906.05L1515.31 919.688L1503.5 912.869Z" fill="#D63D3D"/>
<path d="M1529.75 909.37L1541.56 902.551L1541.56 916.189L1529.75 909.37Z" fill="#D63D3D"/>
</g>
</g>
<path d="M1527.25 906.414L1512.32 906.414L1512.32 898.724C1512.32 895.929 1512.94 893.595 1514.18 891.722C1515.41 889.842 1517.29 888.902 1519.8 888.902L1519.74 888.902C1522.25 888.902 1524.12 889.842 1525.37 891.722C1526.62 893.601 1527.25 895.936 1527.25 898.724L1527.25 906.414ZM1524.27 902.241L1524.27 898.888C1524.27 897.221 1523.93 895.864 1523.26 894.818C1522.58 893.766 1521.44 893.239 1519.84 893.239L1519.72 893.239C1518.12 893.239 1517 893.762 1516.34 894.808C1515.68 895.847 1515.35 897.207 1515.35 898.888L1515.35 902.241L1524.27 902.241Z" fill="black" fill-opacity="0.6"/>
</g>
<g clip-path="url(#clip3_34_372)">
<rect x="1214.77" y="304" width="55.9917" height="27.9959" rx="13.9979" transform="rotate(34.28 1214.77 304)" fill="#FF8E5D"/>
<g style="mix-blend-mode:darken">
<mask id="mask1_34_372" style="mask-type:alpha" maskUnits="userSpaceOnUse" x="1204" y="309" width="52" height="45">
<rect x="1214.77" y="304" width="55.9917" height="27.9959" rx="13.9979" transform="rotate(34.28 1214.77 304)" fill="#FF8E5D"/>
</mask>
<g mask="url(#mask1_34_372)">
<path d="M1246.77 306.756L1242.25 367.2L1192.16 333.06L1246.77 306.756Z" fill="#FF8E5D"/>
<path d="M1251.57 335.439L1249.87 358.105L1231.09 345.303L1251.57 335.439Z" fill="#EA7948"/>
<path d="M1227.58 308.5L1226.56 322.1L1215.3 314.418L1227.58 308.5Z" fill="#E67342"/>
<path d="M1215.69 332.158L1214.67 345.758L1203.4 338.076L1215.69 332.158Z" fill="#E67342"/>
</g>
</g>
<path d="M1223.13 325.133L1223.09 325.184C1224.61 322.965 1226.46 321.844 1228.65 321.823C1230.84 321.797 1233.15 322.609 1235.57 324.261C1237.81 325.785 1239.32 327.356 1240.1 328.974C1240.88 330.591 1240.82 332.251 1239.91 333.954L1239.72 334.27L1236.16 331.845L1236.37 331.495C1236.74 330.742 1236.7 329.969 1236.27 329.176C1235.83 328.383 1235 327.569 1233.77 326.733C1232.46 325.836 1231.19 325.422 1229.97 325.491C1228.76 325.558 1227.77 326.151 1227.01 327.269L1226.5 328.006C1225.6 329.339 1225.36 330.532 1225.8 331.585C1226.24 332.638 1227.13 333.616 1228.45 334.521C1229.91 335.514 1231.07 336.013 1231.94 336.016C1232.81 336.023 1233.45 335.751 1233.87 335.2L1234.1 334.884L1237.66 337.309L1237.42 337.633C1236.37 339.082 1234.92 339.748 1233.07 339.63C1231.23 339.517 1229.15 338.669 1226.83 337.086C1224.38 335.416 1222.77 333.564 1221.99 331.531C1221.23 329.497 1221.61 327.364 1223.13 325.133Z" fill="black" fill-opacity="0.6"/>
</g>
<g clip-path="url(#clip4_34_372)">
<rect x="1282.13" y="229" width="55.9917" height="27.9959" rx="13.9979" transform="rotate(49 1282.13 229)" fill="#EBBD48"/>
<g style="mix-blend-mode:multiply" opacity="0.5">
<mask id="mask2_34_372" style="mask-type:alpha" maskUnits="userSpaceOnUse" x="1266" y="234" width="48" height="50">
<rect x="1282.13" y="229" width="55.9917" height="27.9959" rx="13.9979" transform="rotate(49 1282.13 229)" fill="#E3B130"/>
</mask>
<g mask="url(#mask2_34_372)">
<path d="M1312.38 239.797L1292.65 297.108L1252.88 251.363L1312.38 239.797Z" fill="#EBBD48"/>
<path d="M1309.74 268.759L1302.34 290.25L1287.42 273.096L1309.74 268.759Z" fill="#DCA519"/>
<path d="M1293.38 236.608L1288.94 249.503L1279.99 239.21L1293.38 236.608Z" fill="#D99D03"/>
<path d="M1275.87 256.468L1271.43 269.363L1262.48 259.071L1275.87 256.468Z" fill="#D99D03"/>
</g>
</g>
<path d="M1280.12 257.548L1291.38 247.755L1296.92 254.123C1298.43 255.861 1299.36 257.414 1299.72 258.781C1300.08 260.143 1299.74 261.271 1298.72 262.163C1298.09 262.706 1297.43 262.965 1296.74 262.941C1296.05 262.917 1295.35 262.686 1294.63 262.248L1294.6 262.275C1295.1 263.186 1295.31 264.047 1295.26 264.857C1295.21 265.672 1294.81 266.4 1294.07 267.042C1292.99 267.979 1291.73 268.167 1290.28 267.605C1288.84 267.039 1287.38 265.908 1285.91 264.21L1280.12 257.548ZM1284.95 258.875L1287.73 262.07C1288.55 263.02 1289.27 263.622 1289.88 263.878C1290.5 264.135 1291.06 264.052 1291.54 263.631C1292.01 263.223 1292.16 262.698 1291.98 262.055C1291.81 261.414 1291.31 260.618 1290.49 259.669L1287.71 256.474L1284.95 258.875ZM1289.58 254.846L1292.12 257.763C1292.92 258.686 1293.6 259.272 1294.16 259.519C1294.73 259.767 1295.22 259.714 1295.63 259.36C1296.04 259.001 1296.16 258.527 1295.98 257.938C1295.81 257.355 1295.32 256.601 1294.52 255.678L1291.98 252.761L1289.58 254.846Z" fill="black" fill-opacity="0.6"/>
</g>
<g clip-path="url(#clip5_34_372)">
<rect x="1377.58" y="178" width="55.9917" height="27.9959" rx="13.9979" transform="rotate(66 1377.58 178)" fill="#7FCC33"/>
<mask id="mask3_34_372" style="mask-type:alpha" maskUnits="userSpaceOnUse" x="1356" y="182" width="40" height="55">
<rect x="1377.58" y="178" width="55.9917" height="27.9959" rx="13.9979" transform="rotate(66 1377.58 178)" fill="#88DA20"/>
</mask>
<g mask="url(#mask3_34_372)">
<path d="M1403.35 197.17L1367.72 246.207L1343.07 190.835L1403.35 197.17Z" fill="#88DA20"/>
<path d="M1392.35 224.093L1378.99 242.482L1369.75 221.717L1392.35 224.093Z" fill="#72C904"/>
<path d="M1386.11 188.565L1378.09 199.598L1372.55 187.14L1386.11 188.565Z" fill="#69BB00"/>
<path d="M1363.56 202.437L1355.54 213.471L1349.99 201.012L1363.56 202.437Z" fill="#69BB00"/>
</g>
<path d="M1366.34 202.549L1383.22 203.64L1385.06 207.77L1374.59 221.075L1372.64 216.701L1379.21 208.748C1379.57 208.348 1379.92 207.982 1380.26 207.652C1380.61 207.325 1380.92 207.026 1381.19 206.757L1381.14 206.645C1380.76 206.67 1380.33 206.7 1379.85 206.734C1379.38 206.774 1378.87 206.792 1378.34 206.79L1368.01 206.304L1366.34 202.549ZM1370.47 204.964L1373.61 204.82L1377.64 213.868L1375.43 216.119L1370.47 204.964Z" fill="black" fill-opacity="0.6"/>
</g>
<g clip-path="url(#clip6_34_372)">
<rect x="1468.57" y="153" width="55.9917" height="27.9959" rx="13.9979" transform="rotate(80 1468.57 153)" fill="#02B5C3"/>
<g style="mix-blend-mode:multiply" opacity="0.75">
<mask id="mask4_34_372" style="mask-type:alpha" maskUnits="userSpaceOnUse" x="1443" y="155" width="34" height="56">
<rect x="1468.57" y="153" width="55.9917" height="27.9959" rx="13.9979" transform="rotate(80 1468.57 153)" fill="#02B5C3"/>
</mask>
<g mask="url(#mask4_34_372)">
<path d="M1488.94 177.836L1442.51 216.797L1431.98 157.105L1488.94 177.836Z" fill="#02B5C3"/>
<path d="M1471.76 201.298L1454.34 215.909L1450.4 193.524L1471.76 201.298Z" fill="#009DAA"/>
<path d="M1474.3 165.316L1463.85 174.082L1461.48 160.652L1474.3 165.316Z" fill="#0096A2"/>
<path d="M1449.06 173.32L1438.61 182.086L1436.24 168.655L1449.06 173.32Z" fill="#0096A2"/>
</g>
</g>
<g filter="url(#filter6_dd_34_372)">
<path d="M1456.23 174.91L1456.68 174.822L1457.41 178.982L1457.1 179.047C1456.46 179.18 1456.06 179.643 1455.9 180.435C1455.74 181.227 1455.78 182.319 1456.03 183.712C1456.27 185.092 1456.58 186.124 1456.96 186.807C1457.34 187.497 1457.76 187.8 1458.23 187.717C1458.65 187.643 1458.93 187.288 1459.08 186.652C1459.22 186.023 1459.27 184.435 1459.21 181.891C1459.15 179.306 1459.37 177.418 1459.86 176.228C1460.36 175.037 1461.27 174.325 1462.59 174.092C1463.99 173.844 1465.21 174.355 1466.24 175.624C1467.28 176.892 1468.02 178.791 1468.46 181.322C1468.9 183.799 1468.83 185.839 1468.24 187.441C1467.66 189.05 1466.71 189.98 1465.4 190.232L1465.02 190.299L1464.3 186.241L1464.58 186.181C1465.13 186.071 1465.49 185.663 1465.68 184.957C1465.87 184.257 1465.84 183.224 1465.6 181.858C1465.37 180.539 1465.09 179.578 1464.76 178.977C1464.43 178.375 1464.04 178.115 1463.58 178.195C1463.23 178.257 1463 178.624 1462.89 179.296C1462.78 179.968 1462.74 181.512 1462.78 183.927C1462.79 186.459 1462.6 188.332 1462.2 189.547C1461.8 190.762 1460.87 191.5 1459.39 191.76C1457.85 192.031 1456.55 191.481 1455.48 190.108C1454.42 188.74 1453.66 186.784 1453.22 184.239C1452.77 181.709 1452.78 179.59 1453.25 177.883C1453.72 176.183 1454.72 175.192 1456.23 174.91Z" fill="url(#paint9_linear_34_372)"/>
</g>
</g>
<g clip-path="url(#clip7_34_372)">
<rect x="1536" y="154" width="55.9917" height="27.9959" rx="13.9979" transform="rotate(90 1536 154)" fill="#DE31AE"/>
<g style="mix-blend-mode:multiply" opacity="0.75">
<mask id="mask5_34_372" style="mask-type:alpha" maskUnits="userSpaceOnUse" x="1508" y="154" width="28" height="56">
<rect x="1536" y="154" width="55.9917" height="27.9959" rx="13.9979" transform="rotate(90 1536 154)" fill="#DE31AE"/>
</mask>
<g mask="url(#mask5_34_372)">
<path d="M1551.74 181.996L1499.25 212.302V151.69L1551.74 181.996Z" fill="#DE31AE"/>
<path d="M1530.75 202.118L1511.06 213.483V190.753L1530.75 202.118Z" fill="#C30B90"/>
<path d="M1539.5 167.123L1527.68 173.942V160.304L1539.5 167.123Z" fill="#BE0089"/>
<path d="M1513.25 170.622L1501.44 177.441V163.804L1513.25 170.622Z" fill="#BE0089"/>
</g>
</g>
<g filter="url(#filter7_dd_34_372)">
<path d="M1520.04 165.793L1520.49 165.783V170.007L1520.18 170.017C1519.53 170.037 1519.05 170.424 1518.75 171.175C1518.46 171.927 1518.31 173.011 1518.31 174.425C1518.31 175.827 1518.44 176.896 1518.69 177.634C1518.94 178.379 1519.31 178.752 1519.79 178.752C1520.21 178.752 1520.55 178.451 1520.8 177.85C1521.05 177.255 1521.38 175.7 1521.76 173.185C1522.15 170.629 1522.69 168.807 1523.38 167.72C1524.08 166.634 1525.1 166.09 1526.44 166.09C1527.87 166.09 1528.98 166.804 1529.77 168.233C1530.57 169.661 1530.97 171.661 1530.97 174.231C1530.97 176.746 1530.54 178.742 1529.69 180.218C1528.84 181.701 1527.74 182.453 1526.41 182.474H1526.02V178.352L1526.31 178.342C1526.86 178.328 1527.29 177.99 1527.6 177.327C1527.91 176.671 1528.06 175.649 1528.06 174.261C1528.06 172.922 1527.95 171.927 1527.73 171.278C1527.51 170.629 1527.17 170.304 1526.71 170.304C1526.35 170.304 1526.06 170.625 1525.83 171.268C1525.61 171.91 1525.31 173.424 1524.92 175.809C1524.49 178.304 1523.98 180.116 1523.37 181.243C1522.77 182.371 1521.72 182.935 1520.23 182.935C1518.66 182.935 1517.47 182.166 1516.66 180.628C1515.85 179.097 1515.45 177.04 1515.45 174.456C1515.45 171.886 1515.83 169.802 1516.59 168.202C1517.35 166.61 1518.5 165.807 1520.04 165.793ZM1520.04 181.077L1520.49 181.067V185.291L1520.18 185.301C1519.53 185.322 1519.05 185.708 1518.75 186.46C1518.46 187.212 1518.31 188.295 1518.31 189.71C1518.31 191.111 1518.44 192.181 1518.69 192.919C1518.94 193.664 1519.31 194.036 1519.79 194.036C1520.21 194.036 1520.55 193.735 1520.8 193.134C1521.05 192.539 1521.38 190.984 1521.76 188.469C1522.15 185.913 1522.69 184.091 1523.38 183.005C1524.08 181.918 1525.1 181.374 1526.44 181.374C1527.87 181.374 1528.98 182.089 1529.77 183.517C1530.57 184.946 1530.97 186.945 1530.97 189.515C1530.97 192.03 1530.54 194.026 1529.69 195.502C1528.84 196.985 1527.74 197.737 1526.41 197.758H1526.02V193.636L1526.31 193.626C1526.86 193.612 1527.29 193.274 1527.6 192.611C1527.91 191.955 1528.06 190.933 1528.06 189.546C1528.06 188.206 1527.95 187.212 1527.73 186.562C1527.51 185.913 1527.17 185.588 1526.71 185.588C1526.35 185.588 1526.06 185.909 1525.83 186.552C1525.61 187.194 1525.31 188.708 1524.92 191.094C1524.49 193.589 1523.98 195.4 1523.37 196.528C1522.77 197.655 1521.72 198.219 1520.23 198.219C1518.66 198.219 1517.47 197.45 1516.66 195.912C1515.85 194.381 1515.45 192.324 1515.45 189.74C1515.45 187.171 1515.83 185.086 1516.59 183.486C1517.35 181.894 1518.5 181.091 1520.04 181.077Z" fill="url(#paint10_linear_34_372)"/>
</g>
</g>
</g>
<defs>
<filter id="filter0_d_34_372" x="-23" y="1027" width="1967" height="59" filterUnits="userSpaceOnUse" color-interpolation-filters="sRGB">
<feFlood flood-opacity="0" result="BackgroundImageFix"/>
<feColorMatrix in="SourceAlpha" type="matrix" values="0 0 0 0 0 0 0 0 0 0 0 0 0 0 0 0 0 0 127 0" result="hardAlpha"/>
<feOffset dy="2"/>
<feGaussianBlur stdDeviation="2"/>
<feComposite in2="hardAlpha" operator="out"/>
<feColorMatrix type="matrix" values="0 0 0 0 0 0 0 0 0 0 0 0 0 0 0 0 0 0 0.25 0"/>
<feBlend mode="normal" in2="BackgroundImageFix" result="effect1_dropShadow_34_372"/>
<feBlend mode="normal" in="SourceGraphic" in2="effect1_dropShadow_34_372" result="shape"/>
</filter>
<filter id="filter1_d_34_372" x="340.381" y="998.021" width="156.39" height="87.9998" filterUnits="userSpaceOnUse" color-interpolation-filters="sRGB">
<feFlood flood-opacity="0" result="BackgroundImageFix"/>
<feColorMatrix in="SourceAlpha" type="matrix" values="0 0 0 0 0 0 0 0 0 0 0 0 0 0 0 0 0 0 127 0" result="hardAlpha"/>
<feOffset dy="2"/>
<feGaussianBlur stdDeviation="2"/>
<feColorMatrix type="matrix" values="0 0 0 0 0 0 0 0 0 0 0 0 0 0 0 0 0 0 0.5 0"/>
<feBlend mode="normal" in2="BackgroundImageFix" result="effect1_dropShadow_34_372"/>
<feBlend mode="normal" in="SourceGraphic" in2="effect1_dropShadow_34_372" result="shape"/>
</filter>
<filter id="filter2_d_34_372" x="482" y="998.021" width="156.39" height="87.9998" filterUnits="userSpaceOnUse" color-interpolation-filters="sRGB">
<feFlood flood-opacity="0" result="BackgroundImageFix"/>
<feColorMatrix in="SourceAlpha" type="matrix" values="0 0 0 0 0 0 0 0 0 0 0 0 0 0 0 0 0 0 127 0" result="hardAlpha"/>
<feOffset dy="2"/>
<feGaussianBlur stdDeviation="2"/>
<feColorMatrix type="matrix" values="0 0 0 0 0 0 0 0 0 0 0 0 0 0 0 0 0 0 0.5 0"/>
<feBlend mode="normal" in2="BackgroundImageFix" result="effect1_dropShadow_34_372"/>
<feBlend mode="normal" in="SourceGraphic" in2="effect1_dropShadow_34_372" result="shape"/>
</filter>
<filter id="filter3_d_34_372" x="908" y="998" width="156.39" height="87.9998" filterUnits="userSpaceOnUse" color-interpolation-filters="sRGB">
<feFlood flood-opacity="0" result="BackgroundImageFix"/>
<feColorMatrix in="SourceAlpha" type="matrix" values="0 0 0 0 0 0 0 0 0 0 0 0 0 0 0 0 0 0 127 0" result="hardAlpha"/>
<feOffset dy="2"/>
<feGaussianBlur stdDeviation="2"/>
<feColorMatrix type="matrix" values="0 0 0 0 0 0 0 0 0 0 0 0 0 0 0 0 0 0 0.5 0"/>
<feBlend mode="normal" in2="BackgroundImageFix" result="effect1_dropShadow_34_372"/>
<feBlend mode="normal" in="SourceGraphic" in2="effect1_dropShadow_34_372" result="shape"/>
</filter>
<filter id="filter4_d_34_372" x="766" y="998" width="156.39" height="87.9998" filterUnits="userSpaceOnUse" color-interpolation-filters="sRGB">
<feFlood flood-opacity="0" result="BackgroundImageFix"/>
<feColorMatrix in="SourceAlpha" type="matrix" values="0 0 0 0 0 0 0 0 0 0 0 0 0 0 0 0 0 0 127 0" result="hardAlpha"/>
<feOffset dy="2"/>
<feGaussianBlur stdDeviation="2"/>
<feColorMatrix type="matrix" values="0 0 0 0 0 0 0 0 0 0 0 0 0 0 0 0 0 0 0.5 0"/>
<feBlend mode="normal" in2="BackgroundImageFix" result="effect1_dropShadow_34_372"/>
<feBlend mode="normal" in="SourceGraphic" in2="effect1_dropShadow_34_372" result="shape"/>
</filter>
<filter id="filter5_d_34_372" x="624" y="998" width="156.39" height="87.9998" filterUnits="userSpaceOnUse" color-interpolation-filters="sRGB">
<feFlood flood-opacity="0" result="BackgroundImageFix"/>
<feColorMatrix in="SourceAlpha" type="matrix" values="0 0 0 0 0 0 0 0 0 0 0 0 0 0 0 0 0 0 127 0" result="hardAlpha"/>
<feOffset dy="2"/>
<feGaussianBlur stdDeviation="2"/>
<feColorMatrix type="matrix" values="0 0 0 0 0 0 0 0 0 0 0 0 0 0 0 0 0 0 0.5 0"/>
<feBlend mode="normal" in2="BackgroundImageFix" result="effect1_dropShadow_34_372"/>
<feBlend mode="normal" in="SourceGraphic" in2="effect1_dropShadow_34_372" result="shape"/>
</filter>
<filter id="filter6_dd_34_372" x="1444.71" y="171.253" width="32.2628" height="35.3347" filterUnits="userSpaceOnUse" color-interpolation-filters="sRGB">
<feFlood flood-opacity="0" result="BackgroundImageFix"/>
<feColorMatrix in="SourceAlpha" type="matrix" values="0 0 0 0 0 0 0 0 0 0 0 0 0 0 0 0 0 0 127 0" result="hardAlpha"/>
<feOffset dy="6.99896"/>
<feGaussianBlur stdDeviation="3.49948"/>
<feComposite in2="hardAlpha" operator="out"/>
<feColorMatrix type="matrix" values="0 0 0 0 0 0 0 0 0 0 0 0 0 0 0 0 0 0 0.25 0"/>
<feBlend mode="normal" in2="BackgroundImageFix" result="effect1_dropShadow_34_372"/>
<feColorMatrix in="SourceAlpha" type="matrix" values="0 0 0 0 0 0 0 0 0 0 0 0 0 0 0 0 0 0 127 0" result="hardAlpha"/>
<feOffset dy="1.74974"/>
<feGaussianBlur stdDeviation="1.74974"/>
<feComposite in2="hardAlpha" operator="out"/>
<feColorMatrix type="matrix" values="0 0 0 0 0 0 0 0 0 0 0 0 0 0 0 0 0 0 0.25 0"/>
<feBlend mode="normal" in2="effect1_dropShadow_34_372" result="effect2_dropShadow_34_372"/>
<feBlend mode="normal" in="SourceGraphic" in2="effect2_dropShadow_34_372" result="shape"/>
</filter>
<filter id="filter7_dd_34_372" x="1508.45" y="164.033" width="29.5201" height="48.1842" filterUnits="userSpaceOnUse" color-interpolation-filters="sRGB">
<feFlood flood-opacity="0" result="BackgroundImageFix"/>
<feColorMatrix in="SourceAlpha" type="matrix" values="0 0 0 0 0 0 0 0 0 0 0 0 0 0 0 0 0 0 127 0" result="hardAlpha"/>
<feOffset dy="6.99896"/>
<feGaussianBlur stdDeviation="3.49948"/>
<feComposite in2="hardAlpha" operator="out"/>
<feColorMatrix type="matrix" values="0 0 0 0 0 0 0 0 0 0 0 0 0 0 0 0 0 0 0.25 0"/>
<feBlend mode="normal" in2="BackgroundImageFix" result="effect1_dropShadow_34_372"/>
<feColorMatrix in="SourceAlpha" type="matrix" values="0 0 0 0 0 0 0 0 0 0 0 0 0 0 0 0 0 0 127 0" result="hardAlpha"/>
<feOffset dy="1.74974"/>
<feGaussianBlur stdDeviation="1.74974"/>
<feComposite in2="hardAlpha" operator="out"/>
<feColorMatrix type="matrix" values="0 0 0 0 0 0 0 0 0 0 0 0 0 0 0 0 0 0 0.25 0"/>
<feBlend mode="normal" in2="effect1_dropShadow_34_372" result="effect2_dropShadow_34_372"/>
<feBlend mode="normal" in="SourceGraphic" in2="effect2_dropShadow_34_372" result="shape"/>
</filter>
<linearGradient id="paint0_linear_34_372" x1="110" y1="616" x2="360" y2="616" gradientUnits="userSpaceOnUse">
<stop stop-color="#00FFAA"/>
<stop offset="0.485" stop-color="#7CF6FF"/>
<stop offset="1" stop-color="#FF9AD7"/>
</linearGradient>
<linearGradient id="paint1_linear_34_372" x1="110" y1="616" x2="360" y2="616" gradientUnits="userSpaceOnUse">
<stop stop-color="#00FFAA"/>
<stop offset="0.485" stop-color="#7CF6FF"/>
<stop offset="1" stop-color="#FF9AD7"/>
</linearGradient>
<linearGradient id="paint2_linear_34_372" x1="291.125" y1="1000" x2="291.125" y2="1070" gradientUnits="userSpaceOnUse">
<stop stop-color="#DE31AE"/>
<stop offset="1" stop-color="#FF86DD"/>
</linearGradient>
<linearGradient id="paint3_linear_34_372" x1="419.381" y1="1000.02" x2="419.381" y2="1080.02" gradientUnits="userSpaceOnUse">
<stop stop-color="#B2FF66" stop-opacity="0"/>
<stop offset="1" stop-color="#B2FF66" stop-opacity="0.25"/>
</linearGradient>
<linearGradient id="paint4_linear_34_372" x1="561" y1="1000.02" x2="561" y2="1080.02" gradientUnits="userSpaceOnUse">
<stop stop-color="#66CCFF" stop-opacity="0"/>
<stop offset="1" stop-color="#66CCFF" stop-opacity="0.25"/>
</linearGradient>
<linearGradient id="paint5_linear_34_372" x1="987" y1="1000" x2="987" y2="1080" gradientUnits="userSpaceOnUse">
<stop stop-color="#8C66FF" stop-opacity="0"/>
<stop offset="1" stop-color="#8C66FF" stop-opacity="0.25"/>
</linearGradient>
<linearGradient id="paint6_linear_34_372" x1="1886.13" y1="994" x2="1886.13" y2="1064" gradientUnits="userSpaceOnUse">
<stop stop-color="#2E576B"/>
<stop offset="1" stop-color="#66CCFF"/>
</linearGradient>
<linearGradient id="paint7_linear_34_372" x1="845" y1="1000" x2="845" y2="1080" gradientUnits="userSpaceOnUse">
<stop stop-color="#8C66FF" stop-opacity="0"/>
<stop offset="1" stop-color="#8C66FF" stop-opacity="0.25"/>
</linearGradient>
<linearGradient id="paint8_linear_34_372" x1="703" y1="1000" x2="703" y2="1080" gradientUnits="userSpaceOnUse">
<stop stop-color="#FF66AB" stop-opacity="0"/>
<stop offset="1" stop-color="#FF66AB" stop-opacity="0.25"/>
</linearGradient>
<linearGradient id="paint9_linear_34_372" x1="1468.26" y1="181.482" x2="1453.49" y2="184.087" gradientUnits="userSpaceOnUse">
<stop stop-color="#FFE7A8"/>
<stop offset="1" stop-color="#FFB800"/>
</linearGradient>
<linearGradient id="paint10_linear_34_372" x1="1530.75" y1="181.996" x2="1515.75" y2="181.996" gradientUnits="userSpaceOnUse">
<stop stop-color="#FFE7A8"/>
<stop offset="1" stop-color="#FFB800"/>
</linearGradient>
<clipPath id="clip0_34_372">
<rect width="1920" height="1080" fill="white"/>
</clipPath>
<clipPath id="clip1_34_372">
<rect width="24" height="24" fill="white" transform="translate(833.619 1011)"/>
</clipPath>
<clipPath id="clip2_34_372">
<rect width="55.9917" height="27.9959" fill="white" transform="translate(1507 925.992) rotate(-90)"/>
</clipPath>
<clipPath id="clip3_34_372">
<rect width="55.9917" height="27.9959" fill="white" transform="translate(1214.77 304) rotate(34.28)"/>
</clipPath>
<clipPath id="clip4_34_372">
<rect width="55.9917" height="27.9959" fill="white" transform="translate(1282.13 229) rotate(49)"/>
</clipPath>
<clipPath id="clip5_34_372">
<rect width="55.9917" height="27.9959" fill="white" transform="translate(1377.58 178) rotate(66)"/>
</clipPath>
<clipPath id="clip6_34_372">
<rect width="55.9917" height="27.9959" fill="white" transform="translate(1468.57 153) rotate(80)"/>
</clipPath>
<clipPath id="clip7_34_372">
<rect width="55.9917" height="27.9959" fill="white" transform="matrix(0 1 -1 0 1536 154)"/>
</clipPath>
</defs>
</svg>
